<?xml version="1.0" encoding="UTF-8" standalone="no"?>
<!-- Created with Inkscape (http://www.inkscape.org/) -->

<svg
   xmlns:dc="http://purl.org/dc/elements/1.1/"
   xmlns:cc="http://creativecommons.org/ns#"
   xmlns:rdf="http://www.w3.org/1999/02/22-rdf-syntax-ns#"
   xmlns:svg="http://www.w3.org/2000/svg"
   xmlns="http://www.w3.org/2000/svg"
   xmlns:sodipodi="http://sodipodi.sourceforge.net/DTD/sodipodi-0.dtd"
   xmlns:inkscape="http://www.inkscape.org/namespaces/inkscape"
   id="svg2"
   version="1.1"
   inkscape:version="0.91 r13725"
   xml:space="preserve"
   width="2400"
   height="1500"
   viewBox="0 0 2400 1500"
   sodipodi:docname="banner.svg"><metadata
     id="metadata8"><rdf:RDF><cc:Work
         rdf:about=""><dc:format>image/svg+xml</dc:format><dc:type
           rdf:resource="http://purl.org/dc/dcmitype/StillImage" /><dc:title></dc:title></cc:Work></rdf:RDF></metadata><defs
     id="defs6" /><sodipodi:namedview
     pagecolor="#ffffff"
     bordercolor="#666666"
     borderopacity="1"
     objecttolerance="10"
     gridtolerance="10"
     guidetolerance="10"
     inkscape:pageopacity="0"
     inkscape:pageshadow="2"
     inkscape:window-width="735"
     inkscape:window-height="480"
     id="namedview4"
     showgrid="false"
     inkscape:zoom="0.13375"
     inkscape:cx="1200"
     inkscape:cy="750"
     inkscape:window-x="0"
     inkscape:window-y="23"
     inkscape:window-maximized="0"
     inkscape:current-layer="g12" /><g
     id="g10"
     inkscape:groupmode="layer"
     inkscape:label="ink_ext_XXXXXX"
     transform="matrix(1.25,0,0,-1.25,0,1500)"><g
       id="g12"
       transform="scale(0.130879,0.130879)"><path
         d="M 0,9168.75 0,4584.38 473.719,7495.45 0,9168.75"
         style="fill:#411417;fill-opacity:1;fill-rule:nonzero;stroke:none"
         id="path14"
         inkscape:connector-curvature="0" /><path
         d="m 14387.3,6968.25 198.7,-1917.8 84,4118.3 -282.7,-2200.5"
         style="fill:#181a3d;fill-opacity:1;fill-rule:nonzero;stroke:none"
         id="path16"
         inkscape:connector-curvature="0" /><path
         d="m 13867.7,7029.38 519.6,-61.13 282.7,2200.5 -802.3,-2139.37"
         style="fill:#242661;fill-opacity:1;fill-rule:nonzero;stroke:none"
         id="path18"
         inkscape:connector-curvature="0" /><path
         d="M 473.719,7495.45 978,6204.19 1138.45,8175.47 473.719,7495.45"
         style="fill:#53121a;fill-opacity:1;fill-rule:nonzero;stroke:none"
         id="path20"
         inkscape:connector-curvature="0" /><path
         d="m 4706.63,6211.83 -978,122.25 1021.54,-535 -43.54,412.75"
         style="fill:#d90e6a;fill-opacity:1;fill-rule:nonzero;stroke:none"
         id="path22"
         inkscape:connector-curvature="0" /><path
         d="m 13325.3,7327.36 542.4,-297.98 802.3,2139.37 -1344.7,-1841.39"
         style="fill:#1b1c43;fill-opacity:1;fill-rule:nonzero;stroke:none"
         id="path24"
         inkscape:connector-curvature="0" /><path
         d="M 0,4584.38 0,0 504.281,1902.52 0,4584.38"
         style="fill:#a82d20;fill-opacity:1;fill-rule:nonzero;stroke:none"
         id="path26"
         inkscape:connector-curvature="0" /><path
         d="M 0,9168.75 473.719,7495.45 1138.45,8175.47 0,9168.75"
         style="fill:#411419;fill-opacity:1;fill-rule:nonzero;stroke:none"
         id="path28"
         inkscape:connector-curvature="0" /><path
         d="M 504.281,1902.52 1268.34,1130.81 1726.78,2605.45 504.281,1902.52"
         style="fill:#c33422;fill-opacity:1;fill-rule:nonzero;stroke:none"
         id="path30"
         inkscape:connector-curvature="0" /><path
         d="M 473.719,7495.45 0,4584.38 978,6204.19 473.719,7495.45"
         style="fill:#6d1417;fill-opacity:1;fill-rule:nonzero;stroke:none"
         id="path32"
         inkscape:connector-curvature="0" /><path
         d="M 1146.09,3461.2 504.281,1902.52 1726.78,2605.45 1146.09,3461.2"
         style="fill:#a12220;fill-opacity:1;fill-rule:nonzero;stroke:none"
         id="path34"
         inkscape:connector-curvature="0" /><path
         d="M 0,4584.38 1146.09,3461.2 1191.94,5187.98 0,4584.38"
         style="fill:#88181d;fill-opacity:1;fill-rule:nonzero;stroke:none"
         id="path36"
         inkscape:connector-curvature="0" /><path
         d="M 978,6204.19 0,4584.38 1191.94,5187.98 978,6204.19"
         style="fill:#a41c21;fill-opacity:1;fill-rule:nonzero;stroke:none"
         id="path38"
         inkscape:connector-curvature="0" /><path
         d="M 0,4584.38 504.281,1902.52 1146.09,3461.2 0,4584.38"
         style="fill:#861c1c;fill-opacity:1;fill-rule:nonzero;stroke:none"
         id="path40"
         inkscape:connector-curvature="0" /><path
         d="M 1726.78,2605.45 1268.34,1130.81 2024.77,962.719 1726.78,2605.45"
         style="fill:#c03522;fill-opacity:1;fill-rule:nonzero;stroke:none"
         id="path42"
         inkscape:connector-curvature="0" /><path
         d="M 504.281,1902.52 0,0 1268.34,1130.81 504.281,1902.52"
         style="fill:#c24420;fill-opacity:1;fill-rule:nonzero;stroke:none"
         id="path44"
         inkscape:connector-curvature="0" /><path
         d="M 1268.34,1130.81 0,0 2024.77,962.719 1268.34,1130.81"
         style="fill:#f57834;fill-opacity:1;fill-rule:nonzero;stroke:none"
         id="path46"
         inkscape:connector-curvature="0" /><path
         d="m 4056.93,2654.19 -67.63,-481.3 247.99,335.5 -180.36,145.8"
         style="fill:#e63645;fill-opacity:1;fill-rule:nonzero;stroke:none"
         id="path48"
         inkscape:connector-curvature="0" /><path
         d="m 3690.42,550.125 137.53,-297.984 76.41,84.047 -213.94,213.937"
         style="fill:#ee7831;fill-opacity:1;fill-rule:nonzero;stroke:none"
         id="path50"
         inkscape:connector-curvature="0" /><path
         d="m 1191.94,5187.98 1176.65,-137.53 15.29,1046.77 -1191.94,-909.24"
         style="fill:#89181d;fill-opacity:1;fill-rule:nonzero;stroke:none"
         id="path52"
         inkscape:connector-curvature="0" /><path
         d="m 0,9168.75 1138.45,-993.28 718.22,244.5 L 0,9168.75"
         style="fill:#361419;fill-opacity:1;fill-rule:nonzero;stroke:none"
         id="path54"
         inkscape:connector-curvature="0" /><path
         d="m 2383.88,6097.22 -15.29,-1046.77 962.72,183.38 -947.43,863.39"
         style="fill:#9e1a26;fill-opacity:1;fill-rule:nonzero;stroke:none"
         id="path56"
         inkscape:connector-curvature="0" /><path
         d="M 1191.94,5187.98 1146.09,3461.2 2368.59,5050.45 1191.94,5187.98"
         style="fill:#83171c;fill-opacity:1;fill-rule:nonzero;stroke:none"
         id="path58"
         inkscape:connector-curvature="0" /><path
         d="M 978,6204.19 1191.94,5187.98 2383.88,6097.22 978,6204.19"
         style="fill:#91191e;fill-opacity:1;fill-rule:nonzero;stroke:none"
         id="path60"
         inkscape:connector-curvature="0" /><path
         d="m 1856.67,8419.97 527.21,-2322.75 886.31,2231.06 -1413.52,91.69"
         style="fill:#641125;fill-opacity:1;fill-rule:nonzero;stroke:none"
         id="path62"
         inkscape:connector-curvature="0" /><path
         d="M 1138.45,8175.47 978,6204.19 2383.88,6097.22 1138.45,8175.47"
         style="fill:#62111c;fill-opacity:1;fill-rule:nonzero;stroke:none"
         id="path64"
         inkscape:connector-curvature="0" /><path
         d="M 1856.67,8419.97 1138.45,8175.47 2383.88,6097.22 1856.67,8419.97"
         style="fill:#4c131d;fill-opacity:1;fill-rule:nonzero;stroke:none"
         id="path66"
         inkscape:connector-curvature="0" /><path
         d="m 3728.63,6334.08 -397.32,-1100.25 1418.86,565.25 -1021.54,535"
         style="fill:#a0163f;fill-opacity:1;fill-rule:nonzero;stroke:none"
         id="path68"
         inkscape:connector-curvature="0" /><path
         d="m 3331.31,5233.83 973.94,-567.22 444.92,1132.47 -1418.86,-565.25"
         style="fill:#be1745;fill-opacity:1;fill-rule:nonzero;stroke:none"
         id="path70"
         inkscape:connector-curvature="0" /><path
         d="M 2383.88,6097.22 3728.63,6334.08 4003.69,7380.84 2383.88,6097.22"
         style="fill:#901634;fill-opacity:1;fill-rule:nonzero;stroke:none"
         id="path72"
         inkscape:connector-curvature="0" /><path
         d="M 3331.31,5233.83 2368.59,5050.45 3400.08,3936.18 3331.31,5233.83"
         style="fill:#d21d29;fill-opacity:1;fill-rule:nonzero;stroke:none"
         id="path74"
         inkscape:connector-curvature="0" /><path
         d="m 4237.29,2508.39 -247.99,-335.5 372.51,-454.35 -124.52,789.85"
         style="fill:#eb3444;fill-opacity:1;fill-rule:nonzero;stroke:none"
         id="path76"
         inkscape:connector-curvature="0" /><path
         d="M 3392.44,733.5 3438.28,580.688 3690.42,550.125 3392.44,733.5"
         style="fill:#f68d58;fill-opacity:1;fill-rule:nonzero;stroke:none"
         id="path78"
         inkscape:connector-curvature="0" /><path
         d="M 1146.09,3461.2 1726.78,2605.45 3400.08,3936.18 1146.09,3461.2"
         style="fill:#c01e24;fill-opacity:1;fill-rule:nonzero;stroke:none"
         id="path80"
         inkscape:connector-curvature="0" /><path
         d="M 2368.59,5050.45 1146.09,3461.2 3400.08,3936.18 2368.59,5050.45"
         style="fill:#ba1d24;fill-opacity:1;fill-rule:nonzero;stroke:none"
         id="path82"
         inkscape:connector-curvature="0" /><path
         d="M 3392.44,733.5 2024.77,962.719 3438.28,580.688 3392.44,733.5"
         style="fill:#f46a23;fill-opacity:1;fill-rule:nonzero;stroke:none"
         id="path84"
         inkscape:connector-curvature="0" /><path
         d="m 2383.88,6097.22 947.43,-863.39 397.32,1100.25 -1344.75,-236.86"
         style="fill:#a01831;fill-opacity:1;fill-rule:nonzero;stroke:none"
         id="path86"
         inkscape:connector-curvature="0" /><path
         d="M 4361.81,1718.54 3690.42,550.125 4469.77,779.344 4361.81,1718.54"
         style="fill:#f57f6b;fill-opacity:1;fill-rule:nonzero;stroke:none"
         id="path88"
         inkscape:connector-curvature="0" /><path
         d="m 4003.69,7380.84 -275.06,-1046.76 978,-122.25 -702.94,1169.01"
         style="fill:#ac1554;fill-opacity:1;fill-rule:nonzero;stroke:none"
         id="path90"
         inkscape:connector-curvature="0" /><path
         d="m 3690.42,550.125 -252.14,30.563 389.67,-328.547 -137.53,297.984"
         style="fill:#f37e36;fill-opacity:1;fill-rule:nonzero;stroke:none"
         id="path92"
         inkscape:connector-curvature="0" /><path
         d="M 3438.28,580.688 2024.77,962.719 3827.95,252.141 3438.28,580.688"
         style="fill:#f48545;fill-opacity:1;fill-rule:nonzero;stroke:none"
         id="path94"
         inkscape:connector-curvature="0" /><path
         d="M 2024.77,962.719 0,0 3827.95,252.141 2024.77,962.719"
         style="fill:#df591d;fill-opacity:1;fill-rule:nonzero;stroke:none"
         id="path96"
         inkscape:connector-curvature="0" /><path
         d="m 14586,5050.45 84,-466.07 0,4584.37 -84,-4118.3"
         style="fill:#1e214f;fill-opacity:1;fill-rule:nonzero;stroke:none"
         id="path98"
         inkscape:connector-curvature="0" /><path
         d="M 1726.78,2605.45 2024.77,962.719 3989.3,2172.89 1726.78,2605.45"
         style="fill:#f03e29;fill-opacity:1;fill-rule:nonzero;stroke:none"
         id="path100"
         inkscape:connector-curvature="0" /><path
         d="M 2024.77,962.719 3392.44,733.5 3989.3,2172.89 2024.77,962.719"
         style="fill:#f25f3a;fill-opacity:1;fill-rule:nonzero;stroke:none"
         id="path102"
         inkscape:connector-curvature="0" /><path
         d="m 3270.19,8328.28 -886.31,-2231.06 1619.81,1283.62 -733.5,947.44"
         style="fill:#751230;fill-opacity:1;fill-rule:nonzero;stroke:none"
         id="path104"
         inkscape:connector-curvature="0" /><path
         d="m 3270.19,8328.28 733.5,-947.44 756.42,1337.11 -1489.92,-389.67"
         style="fill:#801547;fill-opacity:1;fill-rule:nonzero;stroke:none"
         id="path106"
         inkscape:connector-curvature="0" /><path
         d="m 5264.39,6685.55 -557.76,-473.72 663.08,-175.58 -105.32,649.3"
         style="fill:#c80e7a;fill-opacity:1;fill-rule:nonzero;stroke:none"
         id="path108"
         inkscape:connector-curvature="0" /><path
         d="m 1726.78,2605.45 2262.52,-432.56 67.63,481.3 -2330.15,-48.74"
         style="fill:#ef312e;fill-opacity:1;fill-rule:nonzero;stroke:none"
         id="path110"
         inkscape:connector-curvature="0" /><path
         d="m 3400.08,3936.18 -1673.3,-1330.73 2330.15,48.74 -656.85,1281.99"
         style="fill:#d71e25;fill-opacity:1;fill-rule:nonzero;stroke:none"
         id="path112"
         inkscape:connector-curvature="0" /><path
         d="m 4706.63,6211.83 43.54,-412.75 619.54,237.17 -663.08,175.58"
         style="fill:#c70f76;fill-opacity:1;fill-rule:nonzero;stroke:none"
         id="path114"
         inkscape:connector-curvature="0" /><path
         d="M 3690.42,550.125 3904.36,336.188 4469.77,779.344 3690.42,550.125"
         style="fill:#f78f58;fill-opacity:1;fill-rule:nonzero;stroke:none"
         id="path116"
         inkscape:connector-curvature="0" /><path
         d="m 3331.31,5233.83 68.77,-1297.65 905.17,730.43 -973.94,567.22"
         style="fill:#cc1a36;fill-opacity:1;fill-rule:nonzero;stroke:none"
         id="path118"
         inkscape:connector-curvature="0" /><path
         d="m 5517.94,3554.02 -1280.65,-1045.63 1379.4,465.04 -98.75,580.59"
         style="fill:#ec2d73;fill-opacity:1;fill-rule:nonzero;stroke:none"
         id="path120"
         inkscape:connector-curvature="0" /><path
         d="M 3392.44,733.5 3690.42,550.125 4361.81,1718.54 3392.44,733.5"
         style="fill:#f68965;fill-opacity:1;fill-rule:nonzero;stroke:none"
         id="path122"
         inkscape:connector-curvature="0" /><path
         d="M 3989.3,2172.89 3392.44,733.5 l 969.37,985.04 -372.51,454.35"
         style="fill:#ec4b3b;fill-opacity:1;fill-rule:nonzero;stroke:none"
         id="path124"
         inkscape:connector-curvature="0" /><path
         d="m 4305.25,4666.61 1112.13,-908.55 404.42,178.68 -1516.55,729.87"
         style="fill:#ed1580;fill-opacity:1;fill-rule:nonzero;stroke:none"
         id="path126"
         inkscape:connector-curvature="0" /><path
         d="M 4750.17,5799.08 4305.25,4666.61 5821.8,3936.74 4750.17,5799.08"
         style="fill:#ee1d91;fill-opacity:1;fill-rule:nonzero;stroke:none"
         id="path128"
         inkscape:connector-curvature="0" /><path
         d="m 1856.67,8419.97 1413.52,-91.69 1489.92,389.67 -2903.44,-297.98"
         style="fill:#651130;fill-opacity:1;fill-rule:nonzero;stroke:none"
         id="path130"
         inkscape:connector-curvature="0" /><path
         d="m 4760.11,8717.95 -756.42,-1337.11 1260.7,-695.29 -504.28,2032.4"
         style="fill:#93165c;fill-opacity:1;fill-rule:nonzero;stroke:none"
         id="path132"
         inkscape:connector-curvature="0" /><path
         d="M 0,9168.75 1856.67,8419.97 4760.11,8717.95 0,9168.75"
         style="fill:#551022;fill-opacity:1;fill-rule:nonzero;stroke:none"
         id="path134"
         inkscape:connector-curvature="0" /><path
         d="m 7717.03,1948.36 -1077.33,-901.59 1130.82,221.57 -53.49,680.02"
         style="fill:#e0a6d8;fill-opacity:1;fill-rule:nonzero;stroke:none"
         id="path136"
         inkscape:connector-curvature="0" /><path
         d="M 6555.66,8037.94 7212.75,7961.53 7335,9168.75 6555.66,8037.94"
         style="fill:#711f74;fill-opacity:1;fill-rule:nonzero;stroke:none"
         id="path138"
         inkscape:connector-curvature="0" /><path
         d="m 4003.69,7380.84 702.94,-1169.01 557.76,473.72 -1260.7,695.29"
         style="fill:#ad1568;fill-opacity:1;fill-rule:nonzero;stroke:none"
         id="path140"
         inkscape:connector-curvature="0" /><path
         d="m 4361.81,1718.54 1559.67,-931.556 489,404.956 -2048.67,526.6"
         style="fill:#e87282;fill-opacity:1;fill-rule:nonzero;stroke:none"
         id="path142"
         inkscape:connector-curvature="0" /><path
         d="M 5616.69,2973.43 4361.81,1718.54 6410.48,1191.94 5616.69,2973.43"
         style="fill:#e7688a;fill-opacity:1;fill-rule:nonzero;stroke:none"
         id="path144"
         inkscape:connector-curvature="0" /><path
         d="m 4237.29,2508.39 124.52,-789.85 1254.88,1254.89 -1379.4,-465.04"
         style="fill:#dc2b4a;fill-opacity:1;fill-rule:nonzero;stroke:none"
         id="path146"
         inkscape:connector-curvature="0" /><path
         d="m 3400.08,3936.18 656.85,-1281.99 1360.45,1103.87 -2017.3,178.12"
         style="fill:#ef316b;fill-opacity:1;fill-rule:nonzero;stroke:none"
         id="path148"
         inkscape:connector-curvature="0" /><path
         d="m 4305.25,4666.61 -905.17,-730.43 2017.3,-178.12 -1112.13,908.55"
         style="fill:#de173f;fill-opacity:1;fill-rule:nonzero;stroke:none"
         id="path150"
         inkscape:connector-curvature="0" /><path
         d="M 5369.71,6036.25 4750.17,5799.08 5821.8,3936.74 5369.71,6036.25"
         style="fill:#ec209a;fill-opacity:1;fill-rule:nonzero;stroke:none"
         id="path152"
         inkscape:connector-curvature="0" /><path
         d="m 4056.93,2654.19 180.36,-145.8 1280.65,1045.63 -1461.01,-899.83"
         style="fill:#f03766;fill-opacity:1;fill-rule:nonzero;stroke:none"
         id="path154"
         inkscape:connector-curvature="0" /><path
         d="M 5417.38,3758.06 4056.93,2654.19 5517.94,3554.02 5417.38,3758.06"
         style="fill:#f03280;fill-opacity:1;fill-rule:nonzero;stroke:none"
         id="path156"
         inkscape:connector-curvature="0" /><path
         d="m 5821.8,3936.74 -303.86,-382.72 418.5,-416.35 -114.64,799.07"
         style="fill:#ef259c;fill-opacity:1;fill-rule:nonzero;stroke:none"
         id="path158"
         inkscape:connector-curvature="0" /><path
         d="m 5264.39,6685.55 105.32,-649.3 658.74,718.06 -764.06,-68.76"
         style="fill:#cc0b8f;fill-opacity:1;fill-rule:nonzero;stroke:none"
         id="path160"
         inkscape:connector-curvature="0" /><path
         d="m 5417.38,3758.06 100.56,-204.04 303.86,382.72 -404.42,-178.68"
         style="fill:#ef269b;fill-opacity:1;fill-rule:nonzero;stroke:none"
         id="path162"
         inkscape:connector-curvature="0" /><path
         d="M 3904.36,336.188 3827.95,252.141 5921.48,786.984 3904.36,336.188"
         style="fill:#f48a55;fill-opacity:1;fill-rule:nonzero;stroke:none"
         id="path164"
         inkscape:connector-curvature="0" /><path
         d="M 4469.77,779.344 3904.36,336.188 5921.48,786.984 4469.77,779.344"
         style="fill:#f48c76;fill-opacity:1;fill-rule:nonzero;stroke:none"
         id="path166"
         inkscape:connector-curvature="0" /><path
         d="M 4760.11,8717.95 6555.66,8037.94 7335,9168.75 4760.11,8717.95"
         style="fill:#781d6f;fill-opacity:1;fill-rule:nonzero;stroke:none"
         id="path168"
         inkscape:connector-curvature="0" /><path
         d="m 4361.81,1718.54 107.96,-939.196 1451.71,7.64 -1559.67,931.556"
         style="fill:#f18679;fill-opacity:1;fill-rule:nonzero;stroke:none"
         id="path170"
         inkscape:connector-curvature="0" /><path
         d="M 6639.7,1046.77 5921.48,786.984 7335,0 6639.7,1046.77"
         style="fill:#e0a7b5;fill-opacity:1;fill-rule:nonzero;stroke:none"
         id="path172"
         inkscape:connector-curvature="0" /><path
         d="m 5517.94,3554.02 98.75,-580.59 319.75,164.24 -418.5,416.35"
         style="fill:#f149ab;fill-opacity:1;fill-rule:nonzero;stroke:none"
         id="path174"
         inkscape:connector-curvature="0" /><path
         d="m 6621.62,3355.94 728.66,-712.28 145.17,1734.42 -873.83,-1022.14"
         style="fill:#d471bf;fill-opacity:1;fill-rule:nonzero;stroke:none"
         id="path176"
         inkscape:connector-curvature="0" /><path
         d="M 5936.44,3137.67 5616.69,2973.43 6410.48,1191.94 5936.44,3137.67"
         style="fill:#f25fb2;fill-opacity:1;fill-rule:nonzero;stroke:none"
         id="path178"
         inkscape:connector-curvature="0" /><path
         d="m 0,9168.75 4760.11,-450.8 2574.89,450.8 -7335,0"
         style="fill:#6b133e;fill-opacity:1;fill-rule:nonzero;stroke:none"
         id="path180"
         inkscape:connector-curvature="0" /><path
         d="m 5821.8,3936.74 114.64,-799.07 685.18,218.27 -799.82,580.8"
         style="fill:#eb2ea1;fill-opacity:1;fill-rule:nonzero;stroke:none"
         id="path182"
         inkscape:connector-curvature="0" /><path
         d="m 5369.71,6036.25 452.09,-2099.51 640.76,1558.51 -1092.85,541"
         style="fill:#da299d;fill-opacity:1;fill-rule:nonzero;stroke:none"
         id="path184"
         inkscape:connector-curvature="0" /><path
         d="m 6028.45,6754.31 -658.74,-718.06 1092.85,-541 -434.11,1259.06"
         style="fill:#bf0c8d;fill-opacity:1;fill-rule:nonzero;stroke:none"
         id="path186"
         inkscape:connector-curvature="0" /><path
         d="M 11254.6,8022.66 13325.3,7327.36 14670,9168.75 11254.6,8022.66"
         style="fill:#1f2051;fill-opacity:1;fill-rule:nonzero;stroke:none"
         id="path188"
         inkscape:connector-curvature="0" /><path
         d="m 4760.11,8717.95 504.28,-2032.4 1291.27,1352.39 -1795.55,680.01"
         style="fill:#8f1972;fill-opacity:1;fill-rule:nonzero;stroke:none"
         id="path190"
         inkscape:connector-curvature="0" /><path
         d="m 5264.39,6685.55 764.06,68.76 527.21,1283.63 -1291.27,-1352.39"
         style="fill:#9f1586;fill-opacity:1;fill-rule:nonzero;stroke:none"
         id="path192"
         inkscape:connector-curvature="0" /><path
         d="m 7770.52,1268.34 -343.83,-443.152 427.87,145.171 -84.04,297.981"
         style="fill:#d5b1de;fill-opacity:1;fill-rule:nonzero;stroke:none"
         id="path194"
         inkscape:connector-curvature="0" /><path
         d="m 6410.48,1191.94 -489,-404.956 718.22,259.786 -229.22,145.17"
         style="fill:#e990ab;fill-opacity:1;fill-rule:nonzero;stroke:none"
         id="path196"
         inkscape:connector-curvature="0" /><path
         d="m 7335,9168.75 3919.6,-1146.09 3415.4,1146.09 -7335,0"
         style="fill:#292155;fill-opacity:1;fill-rule:nonzero;stroke:none"
         id="path198"
         inkscape:connector-curvature="0" /><path
         d="m 5821.8,3936.74 799.82,-580.8 211.1,1394.59 -1010.92,-813.79"
         style="fill:#db45aa;fill-opacity:1;fill-rule:nonzero;stroke:none"
         id="path200"
         inkscape:connector-curvature="0" /><path
         d="M 6462.56,5495.25 5821.8,3936.74 6832.72,4750.53 6462.56,5495.25"
         style="fill:#cb2d9e;fill-opacity:1;fill-rule:nonzero;stroke:none"
         id="path202"
         inkscape:connector-curvature="0" /><path
         d="m 10148.4,2819.39 845.7,-156.24 50.3,35.07 -896,121.17"
         style="fill:#4049a6;fill-opacity:1;fill-rule:nonzero;stroke:none"
         id="path204"
         inkscape:connector-curvature="0" /><path
         d="m 7518.38,2605.45 198.65,-657.09 404.95,573.05 -603.6,84.04"
         style="fill:#bf81c7;fill-opacity:1;fill-rule:nonzero;stroke:none"
         id="path206"
         inkscape:connector-curvature="0" /><path
         d="M 5921.48,786.984 3827.95,252.141 7335,0 5921.48,786.984"
         style="fill:#d57f69;fill-opacity:1;fill-rule:nonzero;stroke:none"
         id="path208"
         inkscape:connector-curvature="0" /><path
         d="M 13967.1,4156.5 13608,3040.97 14670,4584.38 13967.1,4156.5"
         style="fill:#2c3a98;fill-opacity:1;fill-rule:nonzero;stroke:none"
         id="path210"
         inkscape:connector-curvature="0" /><path
         d="M 6639.7,1046.77 7426.69,825.188 7770.52,1268.34 6639.7,1046.77"
         style="fill:#e8addb;fill-opacity:1;fill-rule:nonzero;stroke:none"
         id="path212"
         inkscape:connector-curvature="0" /><path
         d="m 5936.44,3137.67 474.04,-1945.73 939.8,1451.72 -1413.84,494.01"
         style="fill:#ec6ebe;fill-opacity:1;fill-rule:nonzero;stroke:none"
         id="path214"
         inkscape:connector-curvature="0" /><path
         d="m 6621.62,3355.94 -685.18,-218.27 1413.84,-494.01 -728.66,712.28"
         style="fill:#df5bb5;fill-opacity:1;fill-rule:nonzero;stroke:none"
         id="path216"
         inkscape:connector-curvature="0" /><path
         d="M 6639.7,1046.77 7335,0 7426.69,825.188 6639.7,1046.77"
         style="fill:#e7bcdd;fill-opacity:1;fill-rule:nonzero;stroke:none"
         id="path218"
         inkscape:connector-curvature="0" /><path
         d="M 7564.22,7235.67 6028.45,6754.31 7785.8,5745.75 7564.22,7235.67"
         style="fill:#aa2a9b;fill-opacity:1;fill-rule:nonzero;stroke:none"
         id="path220"
         inkscape:connector-curvature="0" /><path
         d="m 7495.45,4378.08 -145.17,-1734.42 168.1,-38.21 -22.93,1772.63"
         style="fill:#ce76c2;fill-opacity:1;fill-rule:nonzero;stroke:none"
         id="path222"
         inkscape:connector-curvature="0" /><path
         d="m 6832.72,4750.53 -211.1,-1394.59 873.83,1022.14 -662.73,372.45"
         style="fill:#cb52b0;fill-opacity:1;fill-rule:nonzero;stroke:none"
         id="path224"
         inkscape:connector-curvature="0" /><path
         d="m 7212.75,7961.53 -657.09,76.41 1008.56,-802.27 -351.47,725.86"
         style="fill:#831c88;fill-opacity:1;fill-rule:nonzero;stroke:none"
         id="path226"
         inkscape:connector-curvature="0" /><path
         d="M 6555.66,8037.94 6028.45,6754.31 7564.22,7235.67 6555.66,8037.94"
         style="fill:#9f1b92;fill-opacity:1;fill-rule:nonzero;stroke:none"
         id="path228"
         inkscape:connector-curvature="0" /><path
         d="M 6028.45,6754.31 6462.56,5495.25 7785.8,5745.75 6028.45,6754.31"
         style="fill:#bd2c9d;fill-opacity:1;fill-rule:nonzero;stroke:none"
         id="path230"
         inkscape:connector-curvature="0" /><path
         d="m 7518.38,2605.45 -168.1,38.21 366.75,-695.3 -198.65,657.09"
         style="fill:#d08bcc;fill-opacity:1;fill-rule:nonzero;stroke:none"
         id="path232"
         inkscape:connector-curvature="0" /><path
         d="m 7350.28,2643.66 -939.8,-1451.72 1306.55,756.42 -366.75,695.3"
         style="fill:#da83c8;fill-opacity:1;fill-rule:nonzero;stroke:none"
         id="path234"
         inkscape:connector-curvature="0" /><path
         d="m 6832.72,4750.53 662.73,-372.45 290.35,1367.67 -953.08,-995.22"
         style="fill:#c04fae;fill-opacity:1;fill-rule:nonzero;stroke:none"
         id="path236"
         inkscape:connector-curvature="0" /><path
         d="M 7426.69,825.188 7335,0 7854.56,970.359 7426.69,825.188"
         style="fill:#dabde3;fill-opacity:1;fill-rule:nonzero;stroke:none"
         id="path238"
         inkscape:connector-curvature="0" /><path
         d="M 6410.48,1191.94 6639.7,1046.77 7717.03,1948.36 6410.48,1191.94"
         style="fill:#ee97d0;fill-opacity:1;fill-rule:nonzero;stroke:none"
         id="path240"
         inkscape:connector-curvature="0" /><path
         d="m 7495.45,4378.08 22.93,-1772.63 603.6,-84.04 -626.53,1856.67"
         style="fill:#ba6bbc;fill-opacity:1;fill-rule:nonzero;stroke:none"
         id="path242"
         inkscape:connector-curvature="0" /><path
         d="m 6462.56,5495.25 370.16,-744.72 953.08,995.22 -1323.24,-250.5"
         style="fill:#c038a3;fill-opacity:1;fill-rule:nonzero;stroke:none"
         id="path244"
         inkscape:connector-curvature="0" /><path
         d="m 9389.64,1666.41 107.66,-283.46 52.79,59.37 -160.45,224.09"
         style="fill:#8f8bcd;fill-opacity:1;fill-rule:nonzero;stroke:none"
         id="path246"
         inkscape:connector-curvature="0" /><path
         d="m 7212.75,7961.53 351.47,-725.86 649.45,710.58 -1000.92,15.28"
         style="fill:#801c8f;fill-opacity:1;fill-rule:nonzero;stroke:none"
         id="path248"
         inkscape:connector-curvature="0" /><path
         d="m 7785.8,5745.75 1459.36,53.48 129.89,687.66 -1589.25,-741.14"
         style="fill:#77309a;fill-opacity:1;fill-rule:nonzero;stroke:none"
         id="path250"
         inkscape:connector-curvature="0" /><path
         d="M 7854.56,970.359 7335,0 8549.86,573.047 7854.56,970.359"
         style="fill:#cec1e5;fill-opacity:1;fill-rule:nonzero;stroke:none"
         id="path252"
         inkscape:connector-curvature="0" /><path
         d="M 7335,9168.75 7212.75,7961.53 8213.67,7946.25 7335,9168.75"
         style="fill:#692073;fill-opacity:1;fill-rule:nonzero;stroke:none"
         id="path254"
         inkscape:connector-curvature="0" /><path
         d="M 7564.22,7235.67 7785.8,5745.75 9375.05,6486.89 7564.22,7235.67"
         style="fill:#8d2f9c;fill-opacity:1;fill-rule:nonzero;stroke:none"
         id="path256"
         inkscape:connector-curvature="0" /><path
         d="m 9008.3,7762.88 366.75,-1275.99 435.51,320.91 -802.26,955.08"
         style="fill:#672a95;fill-opacity:1;fill-rule:nonzero;stroke:none"
         id="path258"
         inkscape:connector-curvature="0" /><path
         d="m 8121.98,2521.41 872.64,-464.47 52.18,916.85 -924.82,-452.38"
         style="fill:#a581c8;fill-opacity:1;fill-rule:nonzero;stroke:none"
         id="path260"
         inkscape:connector-curvature="0" /><path
         d="M 7785.8,5745.75 7495.45,4378.08 8810.33,4544.68 7785.8,5745.75"
         style="fill:#9b3ba3;fill-opacity:1;fill-rule:nonzero;stroke:none"
         id="path262"
         inkscape:connector-curvature="0" /><path
         d="m 7770.52,1268.34 84.04,-297.981 878.67,-122.25 -962.71,420.231"
         style="fill:#b294d1;fill-opacity:1;fill-rule:nonzero;stroke:none"
         id="path264"
         inkscape:connector-curvature="0" /><path
         d="m 7854.56,970.359 695.3,-397.312 183.37,275.062 -878.67,122.25"
         style="fill:#9186ca;fill-opacity:1;fill-rule:nonzero;stroke:none"
         id="path266"
         inkscape:connector-curvature="0" /><path
         d="M 8810.33,4544.68 7495.45,4378.08 9046.8,2973.79 8810.33,4544.68"
         style="fill:#944fad;fill-opacity:1;fill-rule:nonzero;stroke:none"
         id="path268"
         inkscape:connector-curvature="0" /><path
         d="m 8121.98,2521.41 -404.95,-573.05 1277.59,108.58 -872.64,464.47"
         style="fill:#a276c2;fill-opacity:1;fill-rule:nonzero;stroke:none"
         id="path270"
         inkscape:connector-curvature="0" /><path
         d="m 7717.03,1948.36 53.49,-680.02 1224.1,788.6 -1277.59,-108.58"
         style="fill:#b187ca;fill-opacity:1;fill-rule:nonzero;stroke:none"
         id="path272"
         inkscape:connector-curvature="0" /><path
         d="m 7770.52,1268.34 962.71,-420.231 261.39,1208.831 -1224.1,-788.6"
         style="fill:#a78dcd;fill-opacity:1;fill-rule:nonzero;stroke:none"
         id="path274"
         inkscape:connector-curvature="0" /><path
         d="m 8213.67,7946.25 794.63,-183.37 168.09,198.65 -962.72,-15.28"
         style="fill:#692287;fill-opacity:1;fill-rule:nonzero;stroke:none"
         id="path276"
         inkscape:connector-curvature="0" /><path
         d="m 8213.67,7946.25 -649.45,-710.58 1444.08,527.21 -794.63,183.37"
         style="fill:#70208c;fill-opacity:1;fill-rule:nonzero;stroke:none"
         id="path278"
         inkscape:connector-curvature="0" /><path
         d="M 9008.3,7762.88 7564.22,7235.67 9375.05,6486.89 9008.3,7762.88"
         style="fill:#782493;fill-opacity:1;fill-rule:nonzero;stroke:none"
         id="path280"
         inkscape:connector-curvature="0" /><path
         d="M 7495.45,4378.08 8121.98,2521.41 9046.8,2973.79 7495.45,4378.08"
         style="fill:#a563b8;fill-opacity:1;fill-rule:nonzero;stroke:none"
         id="path282"
         inkscape:connector-curvature="0" /><path
         d="m 7335,9168.75 878.67,-1222.5 962.72,15.28 L 7335,9168.75"
         style="fill:#602277;fill-opacity:1;fill-rule:nonzero;stroke:none"
         id="path284"
         inkscape:connector-curvature="0" /><path
         d="M 7785.8,5745.75 8810.33,4544.68 9245.16,5799.23 7785.8,5745.75"
         style="fill:#7e39a0;fill-opacity:1;fill-rule:nonzero;stroke:none"
         id="path286"
         inkscape:connector-curvature="0" /><path
         d="M 9482.02,702.938 8549.86,573.047 9925.17,412.594 9482.02,702.938"
         style="fill:#9db0e0;fill-opacity:1;fill-rule:nonzero;stroke:none"
         id="path288"
         inkscape:connector-curvature="0" /><path
         d="m 9497.3,1382.95 -15.28,-680.012 68.07,739.382 -52.79,-59.37"
         style="fill:#858acd;fill-opacity:1;fill-rule:nonzero;stroke:none"
         id="path290"
         inkscape:connector-curvature="0" /><path
         d="M 8994.62,2056.94 8733.23,848.109 9389.64,1666.41 8994.62,2056.94"
         style="fill:#8e82c8;fill-opacity:1;fill-rule:nonzero;stroke:none"
         id="path292"
         inkscape:connector-curvature="0" /><path
         d="m 9389.64,1666.41 160.45,-224.09 319.84,404.05 -480.29,-179.96"
         style="fill:#908acd;fill-opacity:1;fill-rule:nonzero;stroke:none"
         id="path294"
         inkscape:connector-curvature="0" /><path
         d="M 8733.23,848.109 9482.02,702.938 9497.3,1382.95 8733.23,848.109"
         style="fill:#959cd6;fill-opacity:1;fill-rule:nonzero;stroke:none"
         id="path296"
         inkscape:connector-curvature="0" /><path
         d="M 8733.23,848.109 8549.86,573.047 9482.02,702.938 8733.23,848.109"
         style="fill:#8288cc;fill-opacity:1;fill-rule:nonzero;stroke:none"
         id="path298"
         inkscape:connector-curvature="0" /><path
         d="M 8549.86,573.047 7335,0 9925.17,412.594 8549.86,573.047"
         style="fill:#a7b7e3;fill-opacity:1;fill-rule:nonzero;stroke:none"
         id="path300"
         inkscape:connector-curvature="0" /><path
         d="M 9869.93,1846.37 9925.17,412.594 10421.8,267.422 9869.93,1846.37"
         style="fill:#8ea4db;fill-opacity:1;fill-rule:nonzero;stroke:none"
         id="path302"
         inkscape:connector-curvature="0" /><path
         d="M 9389.64,1666.41 8733.23,848.109 9497.3,1382.95 9389.64,1666.41"
         style="fill:#8681c8;fill-opacity:1;fill-rule:nonzero;stroke:none"
         id="path304"
         inkscape:connector-curvature="0" /><path
         d="M 9176.39,7961.53 9008.3,7762.88 9810.56,6807.8 9176.39,7961.53"
         style="fill:#592588;fill-opacity:1;fill-rule:nonzero;stroke:none"
         id="path306"
         inkscape:connector-curvature="0" /><path
         d="m 9375.05,6486.89 -129.89,-687.66 565.4,1008.57 -435.51,-320.91"
         style="fill:#5a2791;fill-opacity:1;fill-rule:nonzero;stroke:none"
         id="path308"
         inkscape:connector-curvature="0" /><path
         d="m 13325.3,7327.36 152.8,-1337.11 389.6,1039.13 -542.4,297.98"
         style="fill:#252764;fill-opacity:1;fill-rule:nonzero;stroke:none"
         id="path310"
         inkscape:connector-curvature="0" /><path
         d="M 9955.73,4011.33 11155.6,2781.99 11330.5,2903.2 9955.73,4011.33"
         style="fill:#4248a6;fill-opacity:1;fill-rule:nonzero;stroke:none"
         id="path312"
         inkscape:connector-curvature="0" /><path
         d="m 8994.62,2056.94 395.02,-390.53 480.29,179.96 -875.31,210.57"
         style="fill:#7d74c1;fill-opacity:1;fill-rule:nonzero;stroke:none"
         id="path314"
         inkscape:connector-curvature="0" /><path
         d="M 9869.93,1846.37 9550.09,1442.32 9925.17,412.594 9869.93,1846.37"
         style="fill:#7985cb;fill-opacity:1;fill-rule:nonzero;stroke:none"
         id="path316"
         inkscape:connector-curvature="0" /><path
         d="M 9955.73,4011.33 9046.8,2973.79 10148.4,2819.39 9955.73,4011.33"
         style="fill:#5c4ca9;fill-opacity:1;fill-rule:nonzero;stroke:none"
         id="path318"
         inkscape:connector-curvature="0" /><path
         d="m 8994.62,2056.94 875.31,-210.57 278.47,973.02 -1153.78,-762.45"
         style="fill:#635bb3;fill-opacity:1;fill-rule:nonzero;stroke:none"
         id="path320"
         inkscape:connector-curvature="0" /><path
         d="M 9550.09,1442.32 9482.02,702.938 9925.17,412.594 9550.09,1442.32"
         style="fill:#8a98d5;fill-opacity:1;fill-rule:nonzero;stroke:none"
         id="path322"
         inkscape:connector-curvature="0" /><path
         d="m 8810.33,4544.68 236.47,-1570.89 908.93,1037.54 -1145.4,533.35"
         style="fill:#6546a6;fill-opacity:1;fill-rule:nonzero;stroke:none"
         id="path324"
         inkscape:connector-curvature="0" /><path
         d="m 9245.16,5799.23 -434.83,-1254.55 1145.4,-533.35 -710.57,1787.9"
         style="fill:#6c43a5;fill-opacity:1;fill-rule:nonzero;stroke:none"
         id="path326"
         inkscape:connector-curvature="0" /><path
         d="m 9046.8,2973.79 -52.18,-916.85 1153.78,762.45 -1101.6,154.4"
         style="fill:#7c68bb;fill-opacity:1;fill-rule:nonzero;stroke:none"
         id="path328"
         inkscape:connector-curvature="0" /><path
         d="M 9925.17,412.594 7335,0 10421.8,267.422 9925.17,412.594"
         style="fill:#8aade0;fill-opacity:1;fill-rule:nonzero;stroke:none"
         id="path330"
         inkscape:connector-curvature="0" /><path
         d="m 11330.5,2903.2 -174.9,-121.21 719.2,-1301.85 -544.3,1423.06"
         style="fill:#555db4;fill-opacity:1;fill-rule:nonzero;stroke:none"
         id="path332"
         inkscape:connector-curvature="0" /><path
         d="M 13608,3040.97 13562.1,2406.8 14670,4584.38 13608,3040.97"
         style="fill:#2b3484;fill-opacity:1;fill-rule:nonzero;stroke:none"
         id="path334"
         inkscape:connector-curvature="0" /><path
         d="m 9869.93,1846.37 551.87,-1578.948 444,2031.658 -995.87,-452.71"
         style="fill:#6a75c2;fill-opacity:1;fill-rule:nonzero;stroke:none"
         id="path336"
         inkscape:connector-curvature="0" /><path
         d="m 10148.4,2819.39 -278.47,-973.02 995.87,452.71 -717.4,520.31"
         style="fill:#615eb5;fill-opacity:1;fill-rule:nonzero;stroke:none"
         id="path338"
         inkscape:connector-curvature="0" /><path
         d="m 10148.4,2819.39 717.4,-520.31 128.3,364.07 -845.7,156.24"
         style="fill:#4f53ad;fill-opacity:1;fill-rule:nonzero;stroke:none"
         id="path340"
         inkscape:connector-curvature="0" /><path
         d="M 9176.39,7961.53 9810.56,6807.8 11140,7441.97 9176.39,7961.53"
         style="fill:#482985;fill-opacity:1;fill-rule:nonzero;stroke:none"
         id="path342"
         inkscape:connector-curvature="0" /><path
         d="m 11044.4,2698.22 -178.6,-399.14 289.8,482.91 -111.2,-83.77"
         style="fill:#5b5eb5;fill-opacity:1;fill-rule:nonzero;stroke:none"
         id="path344"
         inkscape:connector-curvature="0" /><path
         d="m 10994.1,2663.15 -128.3,-364.07 178.6,399.14 -50.3,-35.07"
         style="fill:#5c61b6;fill-opacity:1;fill-rule:nonzero;stroke:none"
         id="path346"
         inkscape:connector-curvature="0" /><path
         d="M 14670,4584.38 13562.1,2406.8 14670,0 l 0,4584.38"
         style="fill:#2b3f9c;fill-opacity:1;fill-rule:nonzero;stroke:none"
         id="path348"
         inkscape:connector-curvature="0" /><path
         d="m 9955.73,4011.33 192.67,-1191.94 1007.2,-37.4 -1199.87,1229.34"
         style="fill:#504faa;fill-opacity:1;fill-rule:nonzero;stroke:none"
         id="path350"
         inkscape:connector-curvature="0" /><path
         d="m 10148.4,2819.39 896,-121.17 111.2,83.77 -1007.2,37.4"
         style="fill:#3f48a5;fill-opacity:1;fill-rule:nonzero;stroke:none"
         id="path352"
         inkscape:connector-curvature="0" /><path
         d="m 9176.39,7961.53 1963.61,-519.56 114.6,580.69 -2078.21,-61.13"
         style="fill:#3b2875;fill-opacity:1;fill-rule:nonzero;stroke:none"
         id="path354"
         inkscape:connector-curvature="0" /><path
         d="M 7335,9168.75 9176.39,7961.53 11254.6,8022.66 7335,9168.75"
         style="fill:#4e2474;fill-opacity:1;fill-rule:nonzero;stroke:none"
         id="path356"
         inkscape:connector-curvature="0" /><path
         d="m 11155.6,2781.99 -289.8,-482.91 1009,-818.94 -719.2,1301.85"
         style="fill:#5a63b8;fill-opacity:1;fill-rule:nonzero;stroke:none"
         id="path358"
         inkscape:connector-curvature="0" /><path
         d="M 9245.16,5799.23 9955.73,4011.33 11598.5,6326.44 9245.16,5799.23"
         style="fill:#4a389b;fill-opacity:1;fill-rule:nonzero;stroke:none"
         id="path360"
         inkscape:connector-curvature="0" /><path
         d="M 11140,7441.97 9810.56,6807.8 11598.5,6326.44 11140,7441.97"
         style="fill:#3a2c85;fill-opacity:1;fill-rule:nonzero;stroke:none"
         id="path362"
         inkscape:connector-curvature="0" /><path
         d="M 9810.56,6807.8 9245.16,5799.23 11598.5,6326.44 9810.56,6807.8"
         style="fill:#4b2b92;fill-opacity:1;fill-rule:nonzero;stroke:none"
         id="path364"
         inkscape:connector-curvature="0" /><path
         d="m 11874.8,1480.14 -1453,-1212.718 2456.3,23.762 -1003.3,1188.956"
         style="fill:#5074c3;fill-opacity:1;fill-rule:nonzero;stroke:none"
         id="path366"
         inkscape:connector-curvature="0" /><path
         d="m 14586,5050.45 -618.9,-840.47 702.9,374.4 -84,466.07"
         style="fill:#2c3491;fill-opacity:1;fill-rule:nonzero;stroke:none"
         id="path368"
         inkscape:connector-curvature="0" /><path
         d="m 10865.8,2299.08 -444,-2031.658 1453,1212.718 -1009,818.94"
         style="fill:#5367ba;fill-opacity:1;fill-rule:nonzero;stroke:none"
         id="path370"
         inkscape:connector-curvature="0" /><path
         d="m 11598.5,6326.44 511.9,-1337.11 114.6,282.7 -626.5,1054.41"
         style="fill:#323192;fill-opacity:1;fill-rule:nonzero;stroke:none"
         id="path372"
         inkscape:connector-curvature="0" /><path
         d="m 11598.5,6326.44 -1642.77,-2315.11 2154.67,978 -511.9,1337.11"
         style="fill:#3e3d9e;fill-opacity:1;fill-rule:nonzero;stroke:none"
         id="path374"
         inkscape:connector-curvature="0" /><path
         d="M 11874.8,1480.14 12878.1,291.184 13141.9,1810.83 11874.8,1480.14"
         style="fill:#425bb2;fill-opacity:1;fill-rule:nonzero;stroke:none"
         id="path376"
         inkscape:connector-curvature="0" /><path
         d="m 12316.7,3805.03 -986.2,-901.83 1811.4,-1092.37 -825.2,1994.2"
         style="fill:#3d4ba7;fill-opacity:1;fill-rule:nonzero;stroke:none"
         id="path378"
         inkscape:connector-curvature="0" /><path
         d="m 9955.73,4011.33 1374.77,-1108.13 986.2,901.83 -2360.97,206.3"
         style="fill:#3942a0;fill-opacity:1;fill-rule:nonzero;stroke:none"
         id="path380"
         inkscape:connector-curvature="0" /><path
         d="m 12110.4,4989.33 -2154.67,-978 2360.97,-206.3 -206.3,1184.3"
         style="fill:#343c9b;fill-opacity:1;fill-rule:nonzero;stroke:none"
         id="path382"
         inkscape:connector-curvature="0" /><path
         d="M 12878.1,291.184 10421.8,267.422 14670,0 12878.1,291.184"
         style="fill:#5584cc;fill-opacity:1;fill-rule:nonzero;stroke:none"
         id="path384"
         inkscape:connector-curvature="0" /><path
         d="m 13967.1,4209.98 0,-53.48 702.9,427.88 -702.9,-374.4"
         style="fill:#2b3285;fill-opacity:1;fill-rule:nonzero;stroke:none"
         id="path386"
         inkscape:connector-curvature="0" /><path
         d="m 11330.5,2903.2 544.3,-1423.06 1267.1,330.69 -1811.4,1092.37"
         style="fill:#3b4ba7;fill-opacity:1;fill-rule:nonzero;stroke:none"
         id="path388"
         inkscape:connector-curvature="0" /><path
         d="m 11254.6,8022.66 -114.6,-580.69 2185.3,-114.61 -2070.7,695.3"
         style="fill:#2d2b77;fill-opacity:1;fill-rule:nonzero;stroke:none"
         id="path390"
         inkscape:connector-curvature="0" /><path
         d="m 11140,7441.97 458.5,-1115.53 1726.8,1000.92 -2185.3,114.61"
         style="fill:#27296b;fill-opacity:1;fill-rule:nonzero;stroke:none"
         id="path392"
         inkscape:connector-curvature="0" /><path
         d="m 14387.3,6968.25 -909.2,-978 1107.9,-939.8 -198.7,1917.8"
         style="fill:#1f2353;fill-opacity:1;fill-rule:nonzero;stroke:none"
         id="path394"
         inkscape:connector-curvature="0" /><path
         d="m 12316.7,3805.03 1245.4,-1398.23 45.9,634.17 -1291.3,764.06"
         style="fill:#3643a1;fill-opacity:1;fill-rule:nonzero;stroke:none"
         id="path396"
         inkscape:connector-curvature="0" /><path
         d="m 11598.5,6326.44 626.5,-1054.41 1253.1,718.22 -1879.6,336.19"
         style="fill:#2b2e80;fill-opacity:1;fill-rule:nonzero;stroke:none"
         id="path398"
         inkscape:connector-curvature="0" /><path
         d="m 13325.3,7327.36 -1726.8,-1000.92 1879.6,-336.19 -152.8,1337.11"
         style="fill:#282a6e;fill-opacity:1;fill-rule:nonzero;stroke:none"
         id="path400"
         inkscape:connector-curvature="0" /><path
         d="m 13478.1,5990.25 489,-1780.27 618.9,840.47 -1107.9,939.8"
         style="fill:#282c72;fill-opacity:1;fill-rule:nonzero;stroke:none"
         id="path402"
         inkscape:connector-curvature="0" /><path
         d="M 13562.1,2406.8 13141.9,1810.83 14670,0 13562.1,2406.8"
         style="fill:#2c46a2;fill-opacity:1;fill-rule:nonzero;stroke:none"
         id="path404"
         inkscape:connector-curvature="0" /><path
         d="m 12316.7,3805.03 825.2,-1994.2 420.2,595.97 -1245.4,1398.23"
         style="fill:#3644a1;fill-opacity:1;fill-rule:nonzero;stroke:none"
         id="path406"
         inkscape:connector-curvature="0" /><path
         d="m 12110.4,4989.33 206.3,-1184.3 1650.4,404.95 -1856.7,779.35"
         style="fill:#37419f;fill-opacity:1;fill-rule:nonzero;stroke:none"
         id="path408"
         inkscape:connector-curvature="0" /><path
         d="m 13478.1,5990.25 -1253.1,-718.22 1742.1,-1062.05 -489,1780.27"
         style="fill:#2a2f81;fill-opacity:1;fill-rule:nonzero;stroke:none"
         id="path410"
         inkscape:connector-curvature="0" /><path
         d="m 13967.1,4209.98 -1650.4,-404.95 1650.4,351.47 0,53.48"
         style="fill:#2a3180;fill-opacity:1;fill-rule:nonzero;stroke:none"
         id="path412"
         inkscape:connector-curvature="0" /><path
         d="M 12316.7,3805.03 13608,3040.97 13967.1,4156.5 12316.7,3805.03"
         style="fill:#2b3796;fill-opacity:1;fill-rule:nonzero;stroke:none"
         id="path414"
         inkscape:connector-curvature="0" /><path
         d="m 12225,5272.03 -114.6,-282.7 1856.7,-779.35 -1742.1,1062.05"
         style="fill:#2c328e;fill-opacity:1;fill-rule:nonzero;stroke:none"
         id="path416"
         inkscape:connector-curvature="0" /><path
         d="m 13867.7,7029.38 -389.6,-1039.13 909.2,978 -519.6,61.13"
         style="fill:#212459;fill-opacity:1;fill-rule:nonzero;stroke:none"
         id="path418"
         inkscape:connector-curvature="0" /><path
         d="M 13141.9,1810.83 12878.1,291.184 14670,0 13141.9,1810.83"
         style="fill:#4870c0;fill-opacity:1;fill-rule:nonzero;stroke:none"
         id="path420"
         inkscape:connector-curvature="0" /></g></g></svg>