<svg xmlns="http://www.w3.org/2000/svg" version="1.1" xmlns:xlink="http://www.w3.org/1999/xlink" xmlns:svgjs="http://svgjs.dev/svgjs" width="100%" height="100%" viewBox="0 0 1000 600"><rect width="1000" height="600" x="0" y="0" fill="#ffe8f5"/><g><circle r="166.66666666666666" cx="461.5524698893229" cy="483.77461549624263" fill="#8000ff" transform="matrix(0.42389299688572635,0,0,0.4238929968857264,0,94.93132145459855)"/><path d="M389.9621450337296 535.0443958137329L389.9621450337296 535.0443958137329Q379.7206801087416 535.0443958137329 372.97630076789585 530.8978514782499Q366.2319214270501 526.751307142767 362.90969012211497 519.8320735227142Q359.56247963443593 512.9128399026613 359.56247963443593 504.46987613523214L359.56247963443593 504.46987613523214L359.56247963443593 411.4723787797923L364.95798310711257 411.4723787797923L364.95798310711257 504.46987613523214Q364.95798310711257 514.8861953394272 370.90302860015436 522.2550542488698Q376.8480740931962 529.6488923410562 389.9621450337296 529.6488923410562L389.9621450337296 529.6488923410562Q403.1011951570069 529.6488923410562 409.02126146730484 522.2550542488698Q414.9663069603466 514.8861953394272 414.9663069603466 504.46987613523214L414.9663069603466 504.46987613523214L414.9663069603466 411.4723787797923L420.36181043302327 411.4723787797923L420.36181043302327 504.46987613523214Q420.36181043302327 512.9128399026613 417.0395791280881 519.8320735227142Q413.717347823153 526.751307142767 406.97296848230724 530.8978514782499Q400.2285891414615 535.0443958137329 389.9621450337296 535.0443958137329ZM389.9621450337296 558.7746194204124L389.9621450337296 558.7746194204124Q373.2510717780784 558.7746194204124 361.1111889645561 551.4806980592014Q348.97130615103373 544.2117558807344 342.40178108939506 531.7971020570294Q335.83225602775644 519.3824482333243 335.83225602775644 504.46987613523214L335.83225602775644 504.46987613523214L335.83225602775644 411.4723787797923L341.227759500433 411.4723787797923L341.227759500433 504.46987613523214Q341.227759500433 517.9586348169237 347.07288826249936 529.0993503206911Q352.9180170245657 540.2400658244585 363.80894070089437 546.8095908860971Q374.6748851944792 553.3791159477357 389.9621450337296 553.3791159477357L389.9621450337296 553.3791159477357Q405.24940487298 553.3791159477357 416.1403285493087 546.8095908860971Q427.00627304289355 540.2400658244585 432.85140180495983 529.0993503206911Q438.6965305670262 517.9586348169237 438.6965305670262 504.46987613523214L438.6965305670262 504.46987613523214L438.6965305670262 411.4723787797923L444.09203403970275 411.4723787797923L444.09203403970275 504.46987613523214Q444.09203403970275 519.3824482333243 437.54748816080803 531.7971020570294Q430.97796309916936 544.2117558807344 418.9130178338786 551.4806980592014Q406.87305175133173 558.7746194204124 389.9621450337296 558.7746194204124ZM389.9621450337296 546.9095076170727L389.9621450337296 546.9095076170727Q376.4733863520381 546.9095076170727 367.03125527485406 541.1393164032379Q357.58912419767 535.3941043721471 352.64324601438307 525.7771190157559Q347.6973678310962 516.1601336593648 347.6973678310962 504.46987613523214L347.6973678310962 504.46987613523214L347.6973678310962 411.4723787797923L353.0928713037728 411.4723787797923L353.0928713037728 504.46987613523214Q353.0928713037728 514.7113410602201 357.31435318748737 523.0793672794176Q361.5608142539458 531.4473934986152 369.82892374216783 536.4682092301337Q378.09703323038985 541.514004144396 389.9621450337296 541.514004144396L389.9621450337296 541.514004144396Q402.02709029902036 541.514004144396 410.1952830562669 536.4682092301337Q418.3884549962573 531.4473934986152 422.6099368799719 523.0793672794176Q426.83141876368643 514.7113410602201 426.83141876368643 504.46987613523214L426.83141876368643 504.46987613523214L426.83141876368643 411.4723787797923L432.226922236363 411.4723787797923L432.226922236363 504.46987613523214Q432.226922236363 516.1601336593648 427.28104405307613 525.7771190157559Q422.33516586978925 535.3941043721471 412.8930347926052 541.1393164032379Q403.45090371542113 546.9095076170727 389.9621450337296 546.9095076170727ZM533.4925290800248 535.0443958137329L533.4925290800248 535.0443958137329Q517.4808729412022 535.0443958137329 505.9654696962766 528.1001830109361Q494.45006645135106 521.1809493908833 488.35514586184604 509.4906918667506Q482.2352460895971 497.80043434261796 482.2352460895971 483.7871128233051L482.2352460895971 483.7871128233051Q482.2352460895971 469.5739578420413 488.35514586184604 457.9586378661403Q494.45006645135106 446.3682970729831 505.9654696962766 439.44906345293026Q517.4808729412022 432.52982983287734 533.4925290800248 432.52982983287734L533.4925290800248 432.52982983287734Q545.1827866041575 432.52982983287734 554.5250009503661 436.37662397543386Q563.8921944793185 440.2483973007342 570.3618028099817 447.0926933725554L570.3618028099817 447.0926933725554L566.5899462156568 450.8645499668803Q560.6449007226149 444.91950447383846 552.376791234393 441.5223356206717Q544.108681746171 438.1001875847611 533.4925290800248 438.1001875847611L533.4925290800248 438.1001875847611Q519.1045198195538 438.1001875847611 508.7631381635904 444.29502490524163Q498.4217565076269 450.51484140846605 493.0262530349503 460.85622306442957Q487.63074956227376 471.19760472039303 487.63074956227376 483.7871128233051L487.63074956227376 483.7871128233051Q487.63074956227376 496.3766209262172 493.0262530349503 506.7180025821807Q498.4217565076269 517.0593842381442 508.7631381635904 523.2542215586247Q519.1045198195538 529.4490588791052 533.4925290800248 529.4490588791052L533.4925290800248 529.4490588791052Q544.108681746171 529.4490588791052 552.376791234393 526.0518900259385Q560.6449007226149 522.6297419900279 566.5899462156568 516.6846964969861L566.5899462156568 516.6846964969861L570.3618028099817 520.456553091311Q563.8921944793185 527.125994883925 554.5250009503661 531.072705757457Q545.1827866041575 535.0443958137329 533.4925290800248 535.0443958137329ZM533.4925290800248 546.9095076170727L533.4925290800248 546.9095076170727Q519.1045198195538 546.9095076170727 507.48919984365284 541.9636294337857Q495.89885905049573 537.0177512504988 487.5308328312982 528.3749540211187Q479.16280661210067 519.7571359744825 474.766470449179 508.31667027778855Q470.3701342862573 496.9011837638385 470.3701342862573 483.7871128233051L470.3701342862573 483.7871128233051Q470.3701342862573 470.6480627000278 474.766470449179 459.2325761860778Q479.16280661210067 447.81708967212774 487.5308328312982 439.0743757117722Q495.89885905049573 430.3566409341604 507.48919984365284 425.510679481849Q519.1045198195538 420.63973884679376 533.4925290800248 420.63973884679376L533.4925290800248 420.63973884679376Q547.7056840612887 420.63973884679376 559.1211705752387 425.4107627508735Q570.5366570891888 430.18178665495327 578.8047665774108 438.6247504223824L578.8047665774108 438.6247504223824L574.8580557038788 442.5964404786583Q567.4891967944362 434.8528938280576 556.9479816765217 430.5314952133675Q546.4317457413512 426.23507578142136 533.4925290800248 426.23507578142136L533.4925290800248 426.23507578142136Q515.8572260628504 426.23507578142136 502.8180926705486 433.9536432492781Q489.7789592782468 441.6971898998788 482.75980892721844 454.7363232921806Q475.76563775893396 467.77545668448244 475.76563775893396 483.7871128233051L475.76563775893396 483.7871128233051Q475.76563775893396 499.5989355001768 482.75980892721844 512.737985623454Q489.7789592782468 525.8520565639876 502.8180926705486 533.5956032145882Q515.8572260628504 541.3391498651889 533.4925290800248 541.3391498651889L533.4925290800248 541.3391498651889Q546.4317457413512 541.3391498651889 556.9479816765217 537.0177512504988Q567.4891967944362 532.6963526358088 574.8580557038788 524.9528059852081L574.8580557038788 524.9528059852081L578.8047665774108 528.924496041484Q570.5366570891888 537.1926055297059 559.1211705752387 542.0385669820173Q547.7056840612887 546.9095076170727 533.4925290800248 546.9095076170727ZM533.4925290800248 558.7746194204124L533.4925290800248 558.7746194204124Q516.5816223624228 558.7746194204124 502.8180926705486 552.929490658346Q489.0545629786745 547.0843618962797 479.16280661210067 536.8428969712918Q469.2710502455269 526.5764528635599 463.8755467728503 513.0127566336367Q458.48004330017375 499.4240812209697 458.48004330017375 483.7871128233051L458.48004330017375 483.7871128233051Q458.48004330017375 468.1251652428966 463.8755467728503 454.56146901297353Q469.2710502455269 440.9727936003065 479.16280661210067 430.73132867531854Q489.0545629786745 420.46488456758664 502.8180926705486 414.6197558055203Q516.5816223624228 408.77462704345396 533.4925290800248 408.77462704345396L533.4925290800248 408.77462704345396Q550.0287480564689 408.77462704345396 563.6923610173675 414.4449015263132Q577.38095316101 420.1151760091724 587.2727095275839 430.18178665495327L587.2727095275839 430.18178665495327L583.4758737505151 433.9536432492781Q574.3085136835136 424.7862831822767 561.6440680323699 419.49069644057556Q548.9546431984824 414.1701305161306 533.4925290800248 414.1701305161306L533.4925290800248 414.1701305161306Q517.6557272204093 414.1701305161306 504.8913648382901 419.56563398880724Q492.1270024561709 424.9611374614838 482.9596423891694 434.5031852696434Q473.7673031394241 444.02025389505906 468.8214249561372 456.7096787289466Q463.8755467728503 469.39910356283417 463.8755467728503 483.7871128233051L463.8755467728503 483.7871128233051Q463.8755467728503 498.17512208377605 468.8214249561372 510.8395677349198Q473.7673031394241 523.5289925688073 482.9596423891694 533.0460611942231Q492.1270024561709 542.5881090023826 504.8913648382901 547.9836124750592Q517.6557272204093 553.3791159477357 533.4925290800248 553.3791159477357L533.4925290800248 553.3791159477357Q548.9546431984824 553.3791159477357 561.6440680323699 548.0835292060347Q574.3085136835136 542.7629632815897 583.4758737505151 533.5956032145882L583.4758737505151 533.5956032145882L587.2727095275839 537.367459808913Q577.38095316101 547.2592161754868 563.6923610173675 553.0294073893216Q550.0287480564689 558.7746194204124 533.4925290800248 558.7746194204124Z " fill="#ffe8f5" transform="matrix(0.42389299688572635,0,0,0.4238929968857264,0,94.93132145459855)"/><path d="M765.6823675068741 535.0443958137329L765.6823675068741 535.0443958137329Q755.4409025818861 535.0443958137329 748.6965232410403 530.8978514782499Q741.9521439001946 526.751307142767 738.6299125952594 519.8320735227142Q735.2827021075805 512.9128399026613 735.2827021075805 504.46987613523214L735.2827021075805 504.46987613523214L735.2827021075805 411.4723787797923L740.6782055802571 411.4723787797923L740.6782055802571 504.46987613523214Q740.6782055802571 514.8861953394272 746.6232510732989 522.2550542488698Q752.5682965663407 529.6488923410562 765.6823675068741 529.6488923410562L765.6823675068741 529.6488923410562Q778.8214176301515 529.6488923410562 784.7414839404494 522.2550542488698Q790.6865294334912 514.8861953394272 790.6865294334912 504.46987613523214L790.6865294334912 504.46987613523214L790.6865294334912 411.4723787797923L796.0820329061678 411.4723787797923L796.0820329061678 504.46987613523214Q796.0820329061678 512.9128399026613 792.7598016012327 519.8320735227142Q789.4375702962975 526.751307142767 782.6931909554518 530.8978514782499Q775.948811614606 535.0443958137329 765.6823675068741 535.0443958137329ZM765.6823675068741 558.7746194204124L765.6823675068741 558.7746194204124Q748.971294251223 558.7746194204124 736.8314114377006 551.4806980592014Q724.6915286241782 544.2117558807344 718.1220035625396 531.7971020570294Q711.5524785009009 519.3824482333243 711.5524785009009 504.46987613523214L711.5524785009009 504.46987613523214L711.5524785009009 411.4723787797923L716.9479819735775 411.4723787797923L716.9479819735775 504.46987613523214Q716.9479819735775 517.9586348169237 722.793110735644 529.0993503206911Q728.6382394977102 540.2400658244585 739.5291631740389 546.8095908860971Q750.3951076676237 553.3791159477357 765.6823675068741 553.3791159477357L765.6823675068741 553.3791159477357Q780.9696273461245 553.3791159477357 791.8605510224531 546.8095908860971Q802.7264955160381 540.2400658244585 808.5716242781043 529.0993503206911Q814.4167530401706 517.9586348169237 814.4167530401706 504.46987613523214L814.4167530401706 504.46987613523214L814.4167530401706 411.4723787797923L819.8122565128473 411.4723787797923L819.8122565128473 504.46987613523214Q819.8122565128473 519.3824482333243 813.2677106339524 531.7971020570294Q806.6981855723138 544.2117558807344 794.6332403070231 551.4806980592014Q782.5932742244763 558.7746194204124 765.6823675068741 558.7746194204124ZM765.6823675068741 546.9095076170727L765.6823675068741 546.9095076170727Q752.1936088251825 546.9095076170727 742.7514777479985 541.1393164032379Q733.3093466708144 535.3941043721471 728.3634684875276 525.7771190157559Q723.4175903042408 516.1601336593648 723.4175903042408 504.46987613523214L723.4175903042408 504.46987613523214L723.4175903042408 411.4723787797923L728.8130937769173 411.4723787797923L728.8130937769173 504.46987613523214Q728.8130937769173 514.7113410602201 733.0345756606318 523.0793672794176Q737.2810367270903 531.4473934986152 745.5491462153122 536.4682092301337Q753.8172557035343 541.514004144396 765.6823675068741 541.514004144396L765.6823675068741 541.514004144396Q777.7473127721648 541.514004144396 785.9155055294113 536.4682092301337Q794.1086774694018 531.4473934986152 798.3301593531164 523.0793672794176Q802.5516412368308 514.7113410602201 802.5516412368308 504.46987613523214L802.5516412368308 504.46987613523214L802.5516412368308 411.4723787797923L807.9471447095075 411.4723787797923L807.9471447095075 504.46987613523214Q807.9471447095075 516.1601336593648 803.0012665262207 525.7771190157559Q798.0553883429337 535.3941043721471 788.6132572657497 541.1393164032379Q779.1711261885656 546.9095076170727 765.6823675068741 546.9095076170727ZM853.2843613896373 556.076867684074L847.8888579169607 556.076867684074L847.8888579169607 483.7871128233051L876.1153344175374 483.7871128233051L876.1153344175374 483.7871128233051Q884.9329859261247 483.96196710251223 891.2277399775807 489.80709586457857Q897.5224940290367 495.65222462664485 897.5224940290367 505.89368955163286L897.5224940290367 505.89368955163286Q897.5224940290367 513.8120904814407 893.6507207037364 519.2075939541173Q889.778947378436 524.6030974267939 883.6590476061871 526.751307142767L883.6590476061871 526.751307142767L896.2485557090992 556.076867684074L890.3284893988013 556.076867684074L878.4633775954615 527.8503911834973Q877.0145849963169 528.0252454627046 876.1153344175374 528.0252454627046L876.1153344175374 528.0252454627046L876.1153344175374 528.0252454627046L871.4442272444331 528.0252454627046L883.3093390477728 556.076867684074L877.364293554731 556.076867684074L865.4991817513913 528.0252454627046L853.2843613896373 528.0252454627046L853.2843613896373 556.076867684074ZM841.3942704035537 556.076867684074L835.9987669308771 556.076867684074L835.9987669308771 483.7871128233051L841.3942704035537 483.7871128233051L841.3942704035537 556.076867684074ZM875.7656258591232 489.18261629598175L875.7656258591232 489.18261629598175L853.2843613896373 489.18261629598175L853.2843613896373 495.65222462664485L876.1153344175374 495.65222462664485L876.1153344175374 495.65222462664485Q880.4367330322275 495.827078905852 883.0345680375902 498.6247473731658Q885.6573822256969 501.39743665773574 885.6573822256969 505.89368955163286L885.6573822256969 505.89368955163286Q885.6573822256969 510.38994244553004 882.9596304893587 513.2625484610755Q880.2618787530204 516.1601336593648 876.1153344175374 516.1601336593648L876.1153344175374 516.1601336593648L876.1153344175374 516.1601336593648L853.2843613896373 516.1601336593648L853.2843613896373 522.6297419900279L875.7656258591232 522.6297419900279Q882.5849427482005 522.6297419900279 887.3559666522804 518.4082601063133Q892.1269905563602 514.1617990398549 892.1269905563602 505.89368955163286L892.1269905563602 505.89368955163286Q892.1269905563602 497.62558006341084 887.3559666522804 493.4040981796963Q882.5849427482005 489.18261629598175 875.7656258591232 489.18261629598175ZM875.7656258591232 501.0477280993215L875.7656258591232 501.0477280993215L853.2843613896373 501.0477280993215L853.2843613896373 510.7646301866881L875.7656258591232 510.7646301866881Q877.7389812958892 510.7646301866881 878.9879404330828 509.5906085977261Q880.2618787530204 508.41658700876405 880.2618787530204 505.89368955163286L880.2618787530204 505.89368955163286Q880.2618787530204 503.37079209450167 878.9879404330828 502.2217496882835Q877.7389812958892 501.0477280993215 875.7656258591232 501.0477280993215ZM936.9146652161247 546.0102570382932L936.9146652161247 546.0102570382932Q929.7206605858892 546.0102570382932 925.1244909610166 543.3125053019548Q920.5283213361439 540.6147535656166 920.0037584985225 536.2933549509265L920.0037584985225 536.2933549509265L925.3992619711992 535.5689586513543Q925.5741162504063 537.9170018292783 928.6215765451589 539.2658776974474Q931.6940160226552 540.6147535656166 936.9146652161247 540.6147535656166L936.9146652161247 540.6147535656166Q948.4050892783064 540.6147535656166 948.4050892783064 535.5689586513543L948.4050892783064 535.5689586513543Q948.4050892783064 533.4207489353811 946.0820252831261 531.6971853260538Q943.7339821052021 529.9986008994705 937.6140823329531 528.2000997419116L937.6140823329531 528.2000997419116L928.4467222659517 525.5023480055734Q920.0037584985225 522.9794505484422 914.3334840156633 517.9586348169237Q908.6632095328041 512.9128399026613 908.6632095328041 504.46987613523214L908.6632095328041 504.46987613523214Q908.6632095328041 497.9752886218251 912.3601285788974 492.9544728903066Q916.0320684422468 487.9086779760442 922.5266559556537 484.93615522952325Q928.9962642863169 481.98861166574625 936.9146652161247 481.98861166574625L936.9146652161247 481.98861166574625Q948.4050892783064 481.98861166574625 956.148635928907 487.55896941762995Q963.8921825795078 493.12932716951366 964.9662874374943 501.9469786781009L964.9662874374943 501.9469786781009L959.5707839648177 502.47154151572227Q958.8463876652454 495.65222462664485 952.6515503447648 491.5056802911619Q946.4317338415403 487.3841151384229 936.9146652161247 487.3841151384229L936.9146652161247 487.3841151384229Q927.022908849551 487.3841151384229 920.5283213361439 492.23007659073426Q914.0587130054807 497.0760380430456 914.0587130054807 504.46987613523214L914.0587130054807 504.46987613523214Q914.0587130054807 511.1143387451024 918.3801116201709 514.7113410602201Q922.7015102348608 518.3083433753378 930.6199111646687 520.6563865532619L930.6199111646687 520.6563865532619L940.5116675312424 523.5289925688073Q953.800592750983 527.4757034423393 953.800592750983 535.3941043721471L953.800592750983 535.3941043721471Q953.800592750983 540.4398992864095 949.2294023088542 543.2125885709794Q944.6332326839815 546.0102570382932 936.9146652161247 546.0102570382932ZM936.9146652161247 557.875368841633L936.9146652161247 557.875368841633Q925.024574230041 557.875368841633 917.2060900312088 552.3050110897492Q909.3876058323765 546.7346533378656 908.31350097439 537.9170018292783L908.31350097439 537.9170018292783L913.7090044470665 537.1926055297059Q914.6082550258459 544.0369016015272 920.9030090773019 548.2583834852418Q927.1977631287581 552.4798653689563 936.9146652161247 552.4798653689563L936.9146652161247 552.4798653689563Q947.3309844203199 552.4798653689563 953.800592750983 547.7088414648765Q960.29518026439 542.9378175607968 960.29518026439 534.6697080725747L960.29518026439 534.6697080725747Q960.29518026439 528.0252454627046 956.148635928907 523.8787011272216Q952.0020915934241 519.7571359744825 944.1086698463602 517.7588013549725L944.1086698463602 517.7588013549725L933.117829439056 514.8861953394272Q927.022908849551 513.2625484610755 923.7756150928474 510.8395677349198Q920.5283213361439 508.41658700876405 920.5283213361439 504.46987613523214L920.5283213361439 504.46987613523214Q920.5283213361439 499.5989355001768 925.1244909610166 496.7263294846314Q929.7206605858892 493.85372346908605 936.9146652161247 493.85372346908605L936.9146652161247 493.85372346908605Q943.559127825995 493.85372346908605 948.0553807198921 496.4515584744488Q952.5516336137894 499.0743726625555 953.1011756341545 503.19593781529454L953.1011756341545 503.19593781529454L947.880526440685 503.92033411486693Q946.9812758619056 499.24922694176263 936.9146652161247 499.24922694176263L936.9146652161247 499.24922694176263Q931.8688703018623 499.24922694176263 928.8963475553414 500.5981028099318Q925.9238248088205 501.9469786781009 925.9238248088205 504.46987613523214L925.9238248088205 504.46987613523214Q925.9238248088205 506.06854383084 927.9221594283304 507.242565419802Q929.8955148650964 508.41658700876405 936.5399774749666 510.38994244553004L936.5399774749666 510.38994244553004L946.0820252831261 513.0876941818683Q955.4242396293347 515.7854459182067 960.5449720918288 521.0060951116761Q965.6906837370666 526.2267443051456 965.6906837370666 534.6697080725747L965.6906837370666 534.6697080725747Q965.6906837370666 545.460715017928 957.6723660762833 551.6805315211524Q949.6790275982439 557.875368841633 936.9146652161247 557.875368841633ZM1037.4308965774703 489.18261629598175L978.2801918399787 489.18261629598175L978.2801918399787 483.7871128233051L1037.4308965774703 483.7871128233051L1037.4308965774703 489.18261629598175ZM1037.4308965774703 544.2117558807344L978.2801918399787 544.2117558807344L978.2801918399787 538.8162524080577L1013.875527249998 501.0477280993215L1021.2443861594405 501.0477280993215L985.6490507494212 538.8162524080577L994.4667022580086 538.8162524080577L1030.0620376680279 501.0477280993215L978.2801918399787 501.0477280993215L978.2801918399787 495.65222462664485L1037.4308965774703 495.65222462664485L1037.4308965774703 501.0477280993215L1037.4308965774703 501.0477280993215L1001.835561167451 538.8162524080577L1037.4308965774703 538.8162524080577L1037.4308965774703 544.2117558807344ZM1037.4308965774703 556.076867684074L978.2801918399787 556.076867684074L978.2801918399787 550.6813642113975L1037.4308965774703 550.6813642113975L1037.4308965774703 556.076867684074ZM1051.8189058379412 529.0993503206911L1051.8189058379412 529.0993503206911L1051.8189058379412 483.7871128233051L1057.2144093106178 483.7871128233051L1057.2144093106178 528.924496041484Q1057.2144093106178 540.4398992864095 1064.1586221134146 546.4598823276829Q1071.0778557334675 552.4798653689563 1080.5949243588832 552.4798653689563L1080.5949243588832 552.4798653689563Q1090.1369721670428 552.4798653689563 1097.0562057870957 546.4598823276829Q1103.9754394071485 540.4398992864095 1103.9754394071485 528.924496041484L1103.9754394071485 528.924496041484L1103.9754394071485 483.7871128233051L1109.3709428798252 483.7871128233051L1109.3709428798252 529.0993503206911L1109.3709428798252 529.0993503206911Q1109.196088600618 538.2667103876925 1105.3243152753178 544.6613811701241Q1101.477521132761 551.0310727698117 1094.982933619354 554.4532208057224Q1088.513325288691 557.875368841633 1080.5949243588832 557.875368841633L1080.5949243588832 557.875368841633Q1072.7015026118193 557.875368841633 1066.1319775501806 554.4532208057224Q1059.562452488542 551.0310727698117 1055.6906791632416 544.5614644391485Q1051.8189058379412 538.0918561084854 1051.8189058379412 529.0993503206911L1051.8189058379412 529.0993503206911ZM1063.708996824025 529.0993503206911L1063.708996824025 529.0993503206911L1063.708996824025 483.7871128233051L1069.1045002967016 483.7871128233051L1069.1045002967016 528.924496041484Q1069.1045002967016 535.0443958137329 1072.5016691498683 537.8170850983028Q1075.923817185779 540.6147535656166 1080.5949243588832 540.6147535656166L1080.5949243588832 540.6147535656166Q1085.2910107147313 540.6147535656166 1088.6881795678983 537.8170850983028Q1092.1103276038086 535.0443958137329 1092.1103276038086 528.924496041484L1092.1103276038086 528.924496041484L1092.1103276038086 483.7871128233051L1097.5058310764853 483.7871128233051L1097.5058310764853 529.0993503206911L1097.5058310764853 529.0993503206911Q1097.3309767972783 537.5423140881202 1092.3850986139914 541.7887751545786Q1087.4392204307044 546.0102570382932 1080.5949243588832 546.0102570382932L1080.5949243588832 546.0102570382932Q1073.775607469806 546.0102570382932 1068.7298125555435 541.6888584236032Q1063.708996824025 537.367459808913 1063.708996824025 529.0993503206911L1063.708996824025 529.0993503206911ZM1173.2177339731647 556.076867684074L1135.6490431263796 556.076867684074L1135.6490431263796 483.7871128233051L1141.0445465990563 483.7871128233051L1141.0445465990563 538.8162524080577L1173.2177339731647 538.8162524080577L1173.2177339731647 544.2117558807344L1141.0445465990563 544.2117558807344L1141.0445465990563 550.6813642113975L1173.2177339731647 550.6813642113975L1173.2177339731647 556.076867684074ZM1129.1544556129727 556.076867684074L1123.758952140296 556.076867684074L1123.758952140296 483.7871128233051L1129.1544556129727 483.7871128233051L1129.1544556129727 556.076867684074ZM1196.0736861838088 556.076867684074L1190.303494969974 556.076867684074L1216.5815952165287 483.7871128233051L1222.3268072476196 483.7871128233051L1248.5799283114302 556.076867684074L1242.8347162803393 556.076867684074L1219.4542012320742 491.68053457036905L1216.0320531961636 501.0477280993215L1235.9904202085181 556.076867684074L1230.2452081774272 556.076867684074L1227.172768699931 547.4340704546939L1199.1211464785615 547.4340704546939L1196.0736861838088 556.076867684074ZM1183.4841780808968 556.076867684074L1177.713986867062 556.076867684074L1203.9920871136167 483.7871128233051L1209.7372991447075 483.7871128233051L1183.4841780808968 556.076867684074ZM1213.1594471806181 508.96612902912926L1205.4159005300173 530.1734551786776L1220.878014648475 530.1734551786776L1213.1594471806181 508.96612902912926ZM1203.4425450932515 535.5689586513543L1201.0945019153273 542.0385669820173L1225.1994132631648 542.0385669820173L1222.8763492679848 535.5689586513543L1203.4425450932515 535.5689586513543ZM1381.1444511331651 535.0443958137329L1381.1444511331651 535.0443958137329Q1365.1327949943425 535.0443958137329 1353.617391749417 528.1001830109361Q1342.1019885044914 521.1809493908833 1335.9820887322426 509.4906918667506Q1329.8871681427374 497.80043434261796 1329.8871681427374 483.7871128233051L1329.8871681427374 483.7871128233051Q1329.8871681427374 469.5739578420413 1335.9820887322426 457.9586378661403Q1342.1019885044914 446.3682970729831 1353.617391749417 439.44906345293026Q1365.1327949943425 432.52982983287734 1381.1444511331651 432.52982983287734L1381.1444511331651 432.52982983287734Q1392.8347086572978 432.52982983287734 1402.1769230035063 436.37662397543386Q1411.519137349715 440.2483973007342 1418.013724863122 447.0926933725554L1418.013724863122 447.0926933725554L1414.2168890860532 450.8645499668803Q1408.2968227757551 444.91950447383846 1400.0287132875333 441.5223356206717Q1391.7356246165673 438.1001875847611 1381.1444511331651 438.1001875847611L1381.1444511331651 438.1001875847611Q1366.7564418726943 438.1001875847611 1356.4150602167306 444.29502490524163Q1346.0736785607673 450.51484140846605 1340.6781750880907 460.85622306442957Q1335.282671615414 471.19760472039303 1335.282671615414 483.7871128233051L1335.282671615414 483.7871128233051Q1335.282671615414 496.3766209262172 1340.6781750880907 506.7180025821807Q1346.0736785607673 517.0593842381442 1356.4150602167306 523.2542215586247Q1366.7564418726943 529.4490588791052 1381.1444511331651 529.4490588791052L1381.1444511331651 529.4490588791052Q1391.7356246165673 529.4490588791052 1400.0287132875333 526.0518900259385Q1408.2968227757551 522.6297419900279 1414.2168890860532 516.6846964969861L1414.2168890860532 516.6846964969861L1418.013724863122 520.456553091311Q1411.519137349715 527.125994883925 1402.1769230035063 531.072705757457Q1392.8347086572978 535.0443958137329 1381.1444511331651 535.0443958137329ZM1381.1444511331651 546.9095076170727L1381.1444511331651 546.9095076170727Q1366.7564418726943 546.9095076170727 1355.1411218967933 541.9636294337857Q1343.550781103636 537.0177512504988 1335.1827548844385 528.3749540211187Q1326.814728665241 519.7571359744825 1322.4183925023194 508.31667027778855Q1317.9970771566539 496.9011837638385 1317.9970771566539 483.7871128233051L1317.9970771566539 483.7871128233051Q1317.9970771566539 470.6480627000278 1322.4183925023194 459.2325761860778Q1326.814728665241 447.81708967212774 1335.1827548844385 439.0743757117722Q1343.550781103636 430.3566409341604 1355.1411218967933 425.510679481849Q1366.7564418726943 420.63973884679376 1381.1444511331651 420.63973884679376L1381.1444511331651 420.63973884679376Q1395.3326269316851 420.63973884679376 1406.7730926283791 425.4107627508735Q1418.1885791423292 430.18178665495327 1426.456688630551 438.6247504223824L1426.456688630551 438.6247504223824L1422.5099777570194 442.5964404786583Q1415.1161396648326 434.8528938280576 1404.5999037296622 430.5314952133675Q1394.0836677944915 426.23507578142136 1381.1444511331651 426.23507578142136L1381.1444511331651 426.23507578142136Q1363.5091481159907 426.23507578142136 1350.470014723689 433.9536432492781Q1337.4308813313871 441.6971898998788 1330.4117309803587 454.7363232921806Q1323.3925806293305 467.77545668448244 1323.3925806293305 483.7871128233051L1323.3925806293305 483.7871128233051Q1323.3925806293305 499.5989355001768 1330.4117309803587 512.737985623454Q1337.4308813313871 525.8520565639876 1350.470014723689 533.5956032145882Q1363.5091481159907 541.3391498651889 1381.1444511331651 541.3391498651889L1381.1444511331651 541.3391498651889Q1394.0836677944915 541.3391498651889 1404.5999037296622 537.0177512504988Q1415.1161396648326 532.6963526358088 1422.5099777570194 524.9528059852081L1422.5099777570194 524.9528059852081L1426.456688630551 528.924496041484Q1418.1885791423292 537.1926055297059 1406.7730926283791 542.0385669820173Q1395.3326269316851 546.9095076170727 1381.1444511331651 546.9095076170727ZM1381.1444511331651 558.7746194204124L1381.1444511331651 558.7746194204124Q1364.233544415563 558.7746194204124 1350.470014723689 552.929490658346Q1336.7064850318147 547.0843618962797 1326.814728665241 536.8428969712918Q1316.9229722986674 526.5764528635599 1311.5274688259906 513.0127566336367Q1306.1319653533142 499.4240812209697 1306.1319653533142 483.7871128233051L1306.1319653533142 483.7871128233051Q1306.1319653533142 468.1251652428966 1311.5274688259906 454.56146901297353Q1316.9229722986674 440.9727936003065 1326.814728665241 430.73132867531854Q1336.7064850318147 420.46488456758664 1350.470014723689 414.6197558055203Q1364.233544415563 408.77462704345396 1381.1444511331651 408.77462704345396L1381.1444511331651 408.77462704345396Q1397.6806701096093 408.77462704345396 1411.344283070508 414.4449015263132Q1425.0078960314067 420.1151760091724 1434.8996523979804 430.18178665495327L1434.8996523979804 430.18178665495327L1431.1277958036553 433.9536432492781Q1421.9604357366538 424.7862831822767 1409.2710109027664 419.49069644057556Q1396.6065652516227 414.1701305161306 1381.1444511331651 414.1701305161306L1381.1444511331651 414.1701305161306Q1365.3076492735495 414.1701305161306 1352.5432868914304 419.56563398880724Q1339.7789245093113 424.9611374614838 1330.5865852595657 434.5031852696434Q1321.4192251925645 444.02025389505906 1316.4733470092776 456.7096787289466Q1311.5274688259906 469.39910356283417 1311.5274688259906 483.7871128233051L1311.5274688259906 483.7871128233051Q1311.5274688259906 498.17512208377605 1316.4733470092776 510.8395677349198Q1321.4192251925645 523.5289925688073 1330.5865852595657 533.0460611942231Q1339.7789245093113 542.5881090023826 1352.5432868914304 547.9836124750592Q1365.3076492735495 553.3791159477357 1381.1444511331651 553.3791159477357L1381.1444511331651 553.3791159477357Q1396.6065652516227 553.3791159477357 1409.2710109027664 548.0835292060347Q1421.9604357366538 542.7629632815897 1431.1277958036553 533.5956032145882L1431.1277958036553 533.5956032145882L1434.8996523979804 537.367459808913Q1425.0078960314067 547.2592161754868 1411.344283070508 553.0294073893216Q1397.6806701096093 558.7746194204124 1381.1444511331651 558.7746194204124ZM1506.664844421128 489.18261629598175L1447.4891605008925 489.18261629598175L1447.4891605008925 483.7871128233051L1506.664844421128 483.7871128233051L1506.664844421128 489.18261629598175ZM1506.664844421128 544.2117558807344L1447.4891605008925 544.2117558807344L1447.4891605008925 538.8162524080577L1483.1094750936554 501.0477280993215L1490.478334003098 501.0477280993215L1454.8829985930788 538.8162524080577L1463.6756709189222 538.8162524080577L1499.2959855116853 501.0477280993215L1447.4891605008925 501.0477280993215L1447.4891605008925 495.65222462664485L1506.664844421128 495.65222462664485L1506.664844421128 501.0477280993215L1506.664844421128 501.0477280993215L1471.0695090111087 538.8162524080577L1506.664844421128 538.8162524080577L1506.664844421128 544.2117558807344ZM1506.664844421128 556.076867684074L1447.4891605008925 556.076867684074L1447.4891605008925 550.6813642113975L1506.664844421128 550.6813642113975L1506.664844421128 556.076867684074ZM1575.9071389871442 556.076867684074L1532.9179654849386 556.076867684074L1532.9179654849386 483.7871128233051L1575.9071389871442 483.7871128233051L1575.9071389871442 489.18261629598175L1538.313468957615 489.18261629598175L1538.313468957615 495.65222462664485L1575.9071389871442 495.65222462664485L1575.9071389871442 501.0477280993215L1538.313468957615 501.0477280993215L1538.313468957615 511.2891930243095L1570.1619269560533 511.2891930243095L1570.1619269560533 516.6846964969861L1538.313468957615 516.6846964969861L1538.313468957615 523.1543048276492L1570.1619269560533 523.1543048276492L1570.1619269560533 528.5498083003258L1538.313468957615 528.5498083003258L1538.313468957615 538.8162524080577L1575.9071389871442 538.8162524080577L1575.9071389871442 544.2117558807344L1538.313468957615 544.2117558807344L1538.313468957615 550.6813642113975L1575.9071389871442 550.6813642113975L1575.9071389871442 556.076867684074ZM1526.4483571542755 556.076867684074L1521.052853681599 556.076867684074L1521.052853681599 483.7871128233051L1526.4483571542755 483.7871128233051L1526.4483571542755 556.076867684074ZM1603.6090526500998 556.076867684074L1598.213549177423 556.076867684074L1598.213549177423 483.7871128233051L1626.4400256779998 483.7871128233051L1626.4400256779998 483.7871128233051Q1635.257677186587 483.96196710251223 1641.552431238043 489.80709586457857Q1647.847185289499 495.65222462664485 1647.847185289499 505.89368955163286L1647.847185289499 505.89368955163286Q1647.847185289499 513.8120904814407 1643.9754119641987 519.2075939541173Q1640.1286178216421 524.6030974267939 1634.0087180493933 526.751307142767L1634.0087180493933 526.751307142767L1646.5982261523054 556.076867684074L1640.6531806592636 556.076867684074L1628.788068855924 527.8503911834973Q1627.3392762567792 528.0252454627046 1626.4400256779998 528.0252454627046L1626.4400256779998 528.0252454627046L1626.4400256779998 528.0252454627046L1621.7689185048955 528.0252454627046L1633.6340303082352 556.076867684074L1627.7139639979373 556.076867684074L1615.8488521945976 528.0252454627046L1603.6090526500998 528.0252454627046L1603.6090526500998 556.076867684074ZM1591.7439408467599 556.076867684074L1586.3484373740835 556.076867684074L1586.3484373740835 483.7871128233051L1591.7439408467599 483.7871128233051L1591.7439408467599 556.076867684074ZM1626.0903171195855 489.18261629598175L1626.0903171195855 489.18261629598175L1603.6090526500998 489.18261629598175L1603.6090526500998 495.65222462664485L1626.4400256779998 495.65222462664485L1626.4400256779998 495.65222462664485Q1630.7614242926898 495.827078905852 1633.3842384807965 498.6247473731658Q1635.9820734861592 501.39743665773574 1635.9820734861592 505.89368955163286L1635.9820734861592 505.89368955163286Q1635.9820734861592 510.38994244553004 1633.2843217498212 513.2625484610755Q1630.5865700134827 516.1601336593648 1626.4400256779998 516.1601336593648L1626.4400256779998 516.1601336593648L1626.4400256779998 516.1601336593648L1603.6090526500998 516.1601336593648L1603.6090526500998 522.6297419900279L1626.0903171195855 522.6297419900279Q1632.9346131914067 522.6297419900279 1637.6806579127428 518.4082601063133Q1642.4516818168224 514.1617990398549 1642.4516818168224 505.89368955163286L1642.4516818168224 505.89368955163286Q1642.4516818168224 497.62558006341084 1637.6806579127428 493.4040981796963Q1632.9346131914067 489.18261629598175 1626.0903171195855 489.18261629598175ZM1626.0903171195855 501.0477280993215L1626.0903171195855 501.0477280993215L1603.6090526500998 501.0477280993215L1603.6090526500998 510.7646301866881L1626.0903171195855 510.7646301866881Q1628.0636725563513 510.7646301866881 1629.337610876289 509.5906085977261Q1630.5865700134827 508.41658700876405 1630.5865700134827 505.89368955163286L1630.5865700134827 505.89368955163286Q1630.5865700134827 503.37079209450167 1629.337610876289 502.2217496882835Q1628.0636725563513 501.0477280993215 1626.0903171195855 501.0477280993215ZM1688.3134613345737 556.076867684074L1682.7431035826899 556.076867684074L1663.6839871491147 483.7871128233051L1669.2543449009984 483.7871128233051L1679.3209555467793 522.0801999696627L1689.587399654511 483.7871128233051L1695.157757406395 483.7871128233051L1682.1935615623247 532.6963526358088L1685.4408553190283 545.460715017928L1701.802220016265 483.7871128233051L1707.3725777681489 483.7871128233051L1705.399222331383 491.15597173274773L1713.4924775403977 521.9053456904555L1723.7589216481297 483.7871128233051L1729.3292794000133 483.7871128233051L1716.365083555943 532.6963526358088L1719.612377312647 545.2858607387209L1735.9737420098836 483.7871128233051L1741.5440997617675 483.7871128233051L1722.4849833281924 556.076867684074L1716.9146255763085 556.076867684074L1702.7014705950446 501.7721243988938L1699.279322559134 514.3616325018058L1710.2701629664382 556.076867684074L1704.6748260318107 556.076867684074L1696.4067165435886 525.1526394471591L1688.3134613345737 556.076867684074ZM1676.0986409728198 556.076867684074L1670.503304038192 556.076867684074L1651.444187604617 483.7871128233051L1657.0145453565005 483.7871128233051L1676.0986409728198 556.076867684074ZM1767.822200008322 556.076867684074L1762.426696535645 556.076867684074L1762.426696535645 483.7871128233051L1767.822200008322 483.7871128233051L1767.822200008322 556.076867684074ZM1755.9321090222384 556.076867684074L1750.5366055495615 556.076867684074L1750.5366055495615 483.7871128233051L1755.9321090222384 483.7871128233051L1755.9321090222384 556.076867684074ZM1787.6057127414697 556.076867684074L1782.2102092687928 556.076867684074L1782.2102092687928 483.7871128233051L1787.6057127414697 483.7871128233051L1787.6057127414697 556.076867684074ZM1847.6556680577405 556.076867684074L1842.260164585064 556.076867684074L1842.260164585064 483.7871128233051L1847.6556680577405 483.7871128233051L1847.6556680577405 556.076867684074ZM1830.3950527817242 546.9095076170727L1830.3950527817242 535.9436463925123L1799.4708245448091 492.9544728903066L1799.4708245448091 503.92033411486693L1830.3950527817242 546.9095076170727ZM1799.4708245448091 556.076867684074L1794.0753210721327 556.076867684074L1794.0753210721327 483.7871128233051L1799.4708245448091 483.7871128233051L1830.3950527817242 526.751307142767L1830.3950527817242 483.7871128233051L1835.790556254401 483.7871128233051L1835.790556254401 556.076867684074L1830.3950527817242 556.076867684074L1799.4708245448091 513.0876941818683L1799.4708245448091 556.076867684074ZM1888.8463404023878 546.0102570382932L1888.8463404023878 546.0102570382932Q1881.6523357721521 546.0102570382932 1877.081145330023 543.3125053019548Q1872.4849757051506 540.6147535656166 1871.9354336847855 536.2933549509265L1871.9354336847855 536.2933549509265L1877.330937157462 535.5689586513543Q1877.530770619413 537.9170018292783 1880.5782309141655 539.2658776974474Q1883.625691208918 540.6147535656166 1888.8463404023878 540.6147535656166L1888.8463404023878 540.6147535656166Q1900.3617436473128 540.6147535656166 1900.3617436473128 535.5689586513543L1900.3617436473128 535.5689586513543Q1900.3617436473128 533.4207489353811 1898.0137004693888 531.6971853260538Q1895.6906364742085 529.9986008994705 1889.5707367019595 528.2000997419116L1889.5707367019595 528.2000997419116L1880.4033766349585 525.5023480055734Q1871.9354336847855 522.9794505484422 1866.2901383846702 517.9586348169237Q1860.6198639018107 512.9128399026613 1860.6198639018107 504.46987613523214L1860.6198639018107 504.46987613523214Q1860.6198639018107 497.9752886218251 1864.2918037651602 492.9544728903066Q1867.9887228112534 487.9086779760442 1874.4583311419165 484.93615522952325Q1880.9279394725795 481.98861166574625 1888.8463404023878 481.98861166574625L1888.8463404023878 481.98861166574625Q1900.3617436473128 481.98861166574625 1908.1052902979136 487.55896941762995Q1915.8238577657703 493.12932716951366 1916.897962623757 501.9469786781009L1916.897962623757 501.9469786781009L1911.5024591510805 502.47154151572227Q1910.803042034252 495.65222462664485 1904.5832255310274 491.5056802911619Q1898.388388210547 487.3841151384229 1888.8463404023878 487.3841151384229L1888.8463404023878 487.3841151384229Q1878.9545840358137 487.3841151384229 1872.4849757051506 492.23007659073426Q1866.0153673744871 497.0760380430456 1866.0153673744871 504.46987613523214L1866.0153673744871 504.46987613523214Q1866.0153673744871 511.1143387451024 1870.3367659891774 514.7113410602201Q1874.633185421124 518.3083433753378 1882.5515863509313 520.6563865532619L1882.5515863509313 520.6563865532619L1892.4433427175054 523.5289925688073Q1905.7572471199896 527.4757034423393 1905.7572471199896 535.3941043721471L1905.7572471199896 535.3941043721471Q1905.7572471199896 540.4398992864095 1901.1610774951168 543.2125885709794Q1896.5898870529882 546.0102570382932 1888.8463404023878 546.0102570382932ZM1888.8463404023878 557.875368841633L1888.8463404023878 557.875368841633Q1876.9812285990479 557.875368841633 1869.1627444002152 552.3050110897492Q1861.344260201383 546.7346533378656 1860.2451761606526 537.9170018292783L1860.2451761606526 537.9170018292783L1865.6406796333295 537.1926055297059Q1866.5399302121086 544.0369016015272 1872.8346842635647 548.2583834852418Q1879.1294383150207 552.4798653689563 1888.8463404023878 552.4798653689563L1888.8463404023878 552.4798653689563Q1899.2876387893266 552.4798653689563 1905.7572471199896 547.7088414648765Q1912.2268554506527 542.9378175607968 1912.2268554506527 534.6697080725747L1912.2268554506527 534.6697080725747Q1912.2268554506527 528.0252454627046 1908.1052902979136 523.8787011272216Q1903.9587459624308 519.7571359744825 1896.040345032623 517.7588013549725L1896.040345032623 517.7588013549725L1885.0744838080627 514.8861953394272Q1878.9545840358137 513.2625484610755 1875.7322694618542 510.8395677349198Q1872.4849757051506 508.41658700876405 1872.4849757051506 504.46987613523214L1872.4849757051506 504.46987613523214Q1872.4849757051506 499.5989355001768 1877.081145330023 496.7263294846314Q1881.6523357721521 493.85372346908605 1888.8463404023878 493.85372346908605L1888.8463404023878 493.85372346908605Q1895.5157821950015 493.85372346908605 1900.0120350888988 496.4515584744488Q1904.508287982796 499.0743726625555 1905.032850820417 503.19593781529454L1905.032850820417 503.19593781529454L1899.8122016269476 503.92033411486693Q1898.9129510481685 499.24922694176263 1888.8463404023878 499.24922694176263L1888.8463404023878 499.24922694176263Q1883.8255246708686 499.24922694176263 1880.853001924348 500.5981028099318Q1877.880479177827 501.9469786781009 1877.880479177827 504.46987613523214L1877.880479177827 504.46987613523214Q1877.880479177827 506.06854383084 1879.8538346145929 507.242565419802Q1881.8271900513591 508.41658700876405 1888.4966318439733 510.38994244553004L1888.4966318439733 510.38994244553004L1898.0137004693888 513.0876941818683Q1907.3808939983414 515.7854459182067 1912.5016264608353 521.0060951116761Q1917.6223589233296 526.2267443051456 1917.6223589233296 534.6697080725747L1917.6223589233296 534.6697080725747Q1917.6223589233296 545.460715017928 1909.6290204452903 551.6805315211524Q1901.6107027845064 557.875368841633 1888.8463404023878 557.875368841633ZM1989.737259504891 556.076867684074L1982.743088336607 556.076867684074L1949.645671200975 514.7113410602201L1967.2559950354052 483.7871128233051L1973.5507490868613 483.7871128233051L1956.115279531638 514.1617990398549L1960.4366781463277 519.5573025125316L1981.119441458255 483.7871128233051L1987.4141955097111 483.7871128233051L1964.0336804614458 523.8787011272216L1989.737259504891 556.076867684074ZM1947.4724823022575 556.076867684074L1942.076978829581 556.076867684074L1942.076978829581 483.7871128233051L1947.4724823022575 483.7871128233051L1947.4724823022575 522.2550542488698L1974.449999665641 556.076867684074L1967.6306827765634 556.076867684074L1947.4724823022575 530.8978514782499L1947.4724823022575 556.076867684074ZM1935.607370498918 556.076867684074L1930.2118670262416 556.076867684074L1930.2118670262416 483.7871128233051L1935.607370498918 483.7871128233051L1935.607370498918 556.076867684074ZM2011.6939611367557 556.076867684074L2005.923769922921 556.076867684074L2032.2018701694756 483.7871128233051L2037.9470822005665 483.7871128233051L2064.2002032643773 556.076867684074L2058.4549912332864 556.076867684074L2035.074476185021 491.68053457036905L2031.6523281491104 501.0477280993215L2051.610695161465 556.076867684074L2045.8654831303743 556.076867684074L2042.7930436528777 547.4340704546939L2014.7414214315081 547.4340704546939L2011.6939611367557 556.076867684074ZM1999.1044530338436 556.076867684074L1993.334261820009 556.076867684074L2019.6123620665635 483.7871128233051L2025.3575740976544 483.7871128233051L1999.1044530338436 556.076867684074ZM2028.7797221335645 508.96612902912926L2021.0361754829646 530.1734551786776L2036.4982896014217 530.1734551786776L2028.7797221335645 508.96612902912926ZM2019.0628200461983 535.5689586513543L2016.7147768682744 542.0385669820173L2040.819688216112 542.0385669820173L2038.4966242209316 535.5689586513543L2019.0628200461983 535.5689586513543Z " fill="#8000ff" transform="matrix(0.42389299688572635,0,0,0.4238929968857264,0,94.93132145459855)"/></g></svg>